<?xml version="1.0" encoding="UTF-8"?>
<svg width="18px" height="22px" viewBox="0 0 18 22" version="1.1" xmlns="http://www.w3.org/2000/svg" xmlns:xlink="http://www.w3.org/1999/xlink">
    <title>icons/color</title>
    <g id="02_Builder" stroke="none" stroke-width="1" fill="none" fill-rule="evenodd" stroke-linecap="round" stroke-linejoin="round">
        <g id="02_Sign-Up" transform="translate(-1363.000000, -366.000000)" stroke="#FFFFFF">
            <g id="right-icons" transform="translate(1345.000000, 199.000000)">
                <g id="colors" transform="translate(0.000000, 150.000000)">
                    <g id="icons/color" transform="translate(19.000000, 18.000000)">
                        <path d="M1.25,12.0833333 L1.25,14.8333333 C1.24998426,16.0632371 0.95174109,17.2747964 0.380833333,18.3641667 C0.245987294,18.6223127 0.255695812,18.932128 0.406440174,19.1813246 C0.557184535,19.4305213 0.827090037,19.5829379 1.11833333,19.5833333 L2.91666667,19.5833333 C4.30027686,18.6091225 5.20817957,17.0959513 5.41666667,15.4166667 L5.41666667,18.75 C5.41666667,19.2102373 5.78976271,19.5833333 6.25,19.5833333 L15.5483333,19.5833333 C15.8398218,19.5830899 16.1099969,19.4305603 16.2607926,19.1811084 C16.4115883,18.9316565 16.4210841,18.6215441 16.2858333,18.3633333 C15.7150564,17.2742127 15.4168171,16.0629552 15.4166667,14.8333333 L15.4166667,12.0833333" id="Path" fill-opacity="0.2" fill="#FFFFFF"></path>
                        <path d="M8.33333333,2.91666667 C8.44839266,2.91666667 8.54166667,3.00994068 8.54166667,3.125 C8.54166667,3.24005932 8.44839266,3.33333333 8.33333333,3.33333333 C8.21827401,3.33333333 8.125,3.24005932 8.125,3.125 C8.125,3.00994068 8.21827401,2.91666667 8.33333333,2.91666667" id="Path"></path>
                        <path d="M14.5833333,8.75 L10,8.75 L10.5833333,2.90416667 C10.6741615,2.04368897 10.2662734,1.20676238 9.53256114,0.74813626 C8.79884886,0.289510135 7.86781781,0.289510135 7.13410553,0.74813626 C6.40039325,1.20676238 5.99250513,2.04368897 6.08333333,2.90416667 L6.66666667,8.75 L2.08333333,8.75 C1.16285875,8.75 0.416666667,9.49619208 0.416666667,10.4166667 L0.416666667,11.6666667 C0.416666667,11.8967853 0.603214688,12.0833333 0.833333333,12.0833333 L15.8333333,12.0833333 C16.063452,12.0833333 16.25,11.8967853 16.25,11.6666667 L16.25,10.4166667 C16.25,9.49619208 15.5038079,8.75 14.5833333,8.75 Z" id="Path" fill-opacity="0.2" fill="#FFFFFF"></path>
                    </g>
                </g>
            </g>
        </g>
    </g>
</svg>