<svg width="107" height="24" viewBox="0 0 107 24" version="1.1" xmlns="http://www.w3.org/2000/svg"><g id="Page-1" stroke="none" stroke-width="1" fill="none" fill-rule="evenodd"><g id="Drift-Logo-40px" fill="#111" fill-rule="nonzero"><path d="M36.884 23.558l-3.031-7.074h-2.59v7.074H24.38V.316h12.126c5.306 0 8.148 3.6 8.148 8.02 0 4.043-2.274 6.127-4.106 7.075l4.106 8.21h-7.769v-.063zm.821-14.842c0-1.58-1.073-2.274-2.273-2.274h-4.169v4.61h4.169c1.2 0 2.273-.694 2.273-2.336z" id="Shape"/><path id="Path" d="M62.59 23.558V.316h17.305v6.126H69.474v3.095h10.168v6.126H69.474v7.895z"/><path d="M0 23.558V.316h10.232c7.2 0 12.505 4.168 12.505 11.62 0 7.453-5.369 11.685-12.505 11.685H0v-.063zm15.726-11.621c0-3.158-1.768-5.495-5.494-5.495H6.947v10.99h3.285c3.473 0 5.494-2.59 5.494-5.495z" id="Shape"/><path id="Path" d="M87.726 23.558V6.442H81.6V.316h19.137v6.126h-6.063v17.116zM61.074.316h.252c.316.063.506.379.316.631-.063.064-.063.127-.126.127l-5.81 6.631s-.127.127-.127.19c-.19.316 0 .631.442.694h2.4c.379.064.568.38.379.695l-.19.19-4.294 4.863c-.063.063-.127.126-.127.19-.189.315 0 .63.443.63h1.579c.189 0 .378.127.505.254a.49.49 0 01-.127.505l-.126.126-10.042 7.453s-.126.126-.19.126c-.126.063-.189.063-.315 0-.063-.063-.127-.126-.063-.253 0-.063.063-.19.063-.19l2.716-5.62.063-.19c.19-.379 0-.694-.38-.757h-2.273c-.316-.064-.505-.316-.379-.632 0-.063.126-.19.126-.19l3.411-5.684s.063-.063.063-.126c.19-.316-.063-.632-.442-.695H46.61c-.315 0-.505-.126-.505-.379 0-.126 0-.252.063-.316l1.01-1.831 3.411-6 .064-.126c.19-.316.442-.443.884-.443l9.537.127z"/><path d="M104.716 4.926a2.264 2.264 0 01-2.274-2.273 2.264 2.264 0 012.274-2.274 2.264 2.264 0 012.273 2.274c0 1.2-1.01 2.273-2.273 2.273zm0-4.231a1.86 1.86 0 00-1.895 1.894 1.9 1.9 0 001.895 1.895 1.9 1.9 0 001.895-1.895 1.86 1.86 0 00-1.895-1.894zm.631 3.22l-.694-1.01h-.442v1.01h-.38V1.327h1.074c.442 0 .884.316.884.821 0 .569-.505.758-.694.758l.694 1.074h-.442v-.063zm-.442-2.273h-.694v.884h.694c.253 0 .506-.19.506-.442s-.253-.442-.506-.442z" id="Shape"/></g></g></svg>