<?xml version="1.0" encoding="UTF-8"?>
<svg width="116px" height="88px" viewBox="0 0 116 88" version="1.1" xmlns="http://www.w3.org/2000/svg" xmlns:xlink="http://www.w3.org/1999/xlink">
    <title>pricing/icon_3</title>
    <defs>
        <polygon id="path-1" points="0.2429504 0.1308736 6.42048 0.1308736 6.42048 0.8348736 0.2429504 0.8348736"></polygon>
        <polygon id="path-3" points="0 0 1.408 0 1.408 0.704 0 0.704"></polygon>
    </defs>
    <g id="02_Builder" stroke="none" stroke-width="1" fill="none" fill-rule="evenodd">
        <g id="32_Billing-Info" transform="translate(-992.000000, -920.000000)">
            <g id="Plans" transform="translate(840.000000, 594.000000)">
                <g id="block_3" transform="translate(0.000000, 300.000000)">
                    <g id="pricing/icon_3" transform="translate(152.000000, 26.000000)">
                        <path d="M114.754454,87.740928 L0.705307418,87.740928 C0.316072442,87.740928 0.001056,87.483968 0.001056,87.166464 C0.001056,86.84896 0.316072442,86.592 0.705307418,86.592 L114.754454,86.592 C115.14204,86.592 115.457056,86.84896 115.457056,87.166464 C115.457056,87.483968 115.14204,87.740928 114.754454,87.740928" id="Fill-37" fill="#919EBB"></path>
                        <path d="M26.4715264,38.5088704 C26.4715264,39.1185344 25.9773184,39.6120384 25.3683584,39.6120384 C24.7586944,39.6120384 24.2644864,39.1185344 24.2644864,38.5088704 C24.2644864,37.8999104 24.7586944,37.4057024 25.3683584,37.4057024 C25.9773184,37.4057024 26.4715264,37.8999104 26.4715264,38.5088704" id="Fill-3" fill="#C7CBD3"></path>
                        <path d="M47.9094528,3.8148352 C47.9094528,4.4244992 47.4152448,4.9180032 46.8062848,4.9180032 C46.1966208,4.9180032 45.7024128,4.4244992 45.7024128,3.8148352 C45.7024128,3.2051712 46.1966208,2.7116672 46.8062848,2.7116672 C47.4152448,2.7116672 47.9094528,3.2051712 47.9094528,3.8148352" id="Fill-5" fill="#C7CBD3"></path>
                        <path d="M85.43392,8.6424448 C85.43392,8.9289728 85.2016,9.1612928 84.915072,9.1612928 C84.62784,9.1612928 84.39552,8.9289728 84.39552,8.6424448 C84.39552,8.3559168 84.62784,8.1235968 84.915072,8.1235968 C85.2016,8.1235968 85.43392,8.3559168 85.43392,8.6424448" id="Fill-7" fill="#C7CBD3"></path>
                        <path d="M7.3741184,45.1067584 C7.3741184,45.3932864 7.1417984,45.6256064 6.8552704,45.6256064 C6.5680384,45.6256064 6.3357184,45.3932864 6.3357184,45.1067584 C6.3357184,44.8202304 6.5680384,44.5879104 6.8552704,44.5879104 C7.1417984,44.5879104 7.3741184,44.8202304 7.3741184,45.1067584" id="Fill-9" fill="#C7CBD3"></path>
                        <path d="M87.9491008,24.4621696 C87.9491008,25.0718336 87.4548928,25.5653376 86.8459328,25.5653376 C86.2362688,25.5653376 85.7420608,25.0718336 85.7420608,24.4621696 C85.7420608,23.8532096 86.2362688,23.3590016 86.8459328,23.3590016 C87.4548928,23.3590016 87.9491008,23.8532096 87.9491008,24.4621696" id="Fill-12" fill="#C7CBD3"></path>
                        <path d="M98.4689024,42.7885568 C98.4689024,43.3975168 97.9746944,43.8917248 97.3657344,43.8917248 C96.7560704,43.8917248 96.2618624,43.3975168 96.2618624,42.7885568 C96.2618624,42.1788928 96.7560704,41.6853888 97.3657344,41.6853888 C97.9746944,41.6853888 98.4689024,42.1788928 98.4689024,42.7885568" id="Fill-14" fill="#C7CBD3"></path>
                        <line x1="73.2531008" y1="0.0002816" x2="73.2531008" y2="4.2432896" id="Stroke-16" stroke="#D3D8E2"></line>
                        <line x1="75.3747456" y1="2.121504" x2="71.1317376" y2="2.121504" id="Stroke-18" stroke="#D3D8E2"></line>
                        <line x1="105.411962" y1="13.4559744" x2="105.411962" y2="19.6328704" id="Stroke-20" stroke="#D3D8E2"></line>
                        <g id="Group-24" transform="translate(102.080000, 16.061760)">
                            <mask id="mask-2" fill="white">
                                <use xlink:href="#path-1"></use>
                            </mask>
                            <g id="Clip-23"></g>
                            <line x1="6.4205504" y1="0.4828736" x2="0.2429504" y2="0.4828736" id="Stroke-22" stroke="#D3D8E2" mask="url(#mask-2)"></line>
                        </g>
                        <line x1="97.3654528" y1="56.0322048" x2="97.3654528" y2="59.8943488" id="Stroke-25" stroke="#D3D8E2"></line>
                        <line x1="99.2963136" y1="57.9634176" x2="95.4341696" y2="57.9634176" id="Stroke-27" stroke="#D3D8E2"></line>
                        <line x1="15.1332544" y1="17.757696" x2="15.1332544" y2="24.775872" id="Stroke-29" stroke="#D3D8E2"></line>
                        <line x1="18.640864" y1="21.2574208" x2="11.623392" y2="21.2574208" id="Stroke-31" stroke="#D3D8E2"></line>
                        <line x1="21.2592512" y1="61.0193408" x2="21.2592512" y2="62.6413568" id="Stroke-33" stroke="#EEF1F8" stroke-width="0.25"></line>
                        <line x1="22.0701184" y1="61.830208" x2="20.4481024" y2="61.830208" id="Stroke-35" stroke="#EEF1F8" stroke-width="0.25"></line>
                        <line x1="46.831136" y1="21.4151872" x2="46.831136" y2="25.1097792" id="Stroke-37" stroke="#D3D8E2"></line>
                        <line x1="48.67808" y1="23.2624832" x2="44.983488" y2="23.2624832" id="Stroke-39" stroke="#D3D8E2"></line>
                        <g id="Group-93" transform="translate(16.192000, 6.336000)">
                            <path d="M54.0224173,80.3511808 L27.4008644,80.3683271 C23.202374,80.3711827 19.7963392,76.9689577 19.7934818,72.7695149 L19.7525238,7.62528904 C19.7496681,3.42489374 23.1509406,0.0198113882 27.3503834,0.0169539765 L53.9709839,0.000760177404 C58.1704267,-0.00209543529 61.5764616,3.39917704 61.579319,7.59766739 L61.620276,72.7437982 C61.6221801,76.9422886 58.2209077,80.3483234 54.0224173,80.3511808" id="Fill-1" fill="#D4D4DF"></path>
                            <path d="M54.2968241,79.048963 L27.1256956,79.0661086 C24.1730368,79.0680124 21.7775733,76.6763588 21.7756683,73.7227475 L21.7337585,7.15076819 C21.7318547,4.19810936 24.1235083,1.80264584 27.0761672,1.80074089 L54.2472956,1.78359529 C57.1999544,1.78169148 59.595418,4.1742976 59.5973229,7.12600395 L59.6392328,73.6989357 C59.6411366,76.6515945 57.2494829,79.0470581 54.2968241,79.048963" id="Fill-3" fill="#E9EDF8"></path>
                            <circle id="Oval" fill="#303850" cx="40.48" cy="11.616" r="4.576"></circle>
                            <rect id="Rectangle" fill="#303751" opacity="0.2" x="26.752" y="19.008" width="28.16" height="2.816" rx="1.408"></rect>
                            <rect id="Rectangle" fill="#303751" opacity="0.2" x="30.976" y="23.232" width="19.712" height="2.816" rx="1.408"></rect>
                            <rect id="Rectangle" fill="#FFFFFF" x="24.64" y="28.864" width="32.384" height="34.496" rx="4"></rect>
                            <rect id="Rectangle" fill="#303751" opacity="0.2" x="28.864" y="33.088" width="23.936" height="2.112" rx="1.056"></rect>
                            <rect id="Rectangle" fill="#303751" opacity="0.2" x="28.864" y="66.176" width="23.936" height="2.112" rx="1.056"></rect>
                            <rect id="Rectangle" fill="#303751" opacity="0.2" x="26.752" y="69.696" width="28.16" height="2.112" rx="1.056"></rect>
                            <rect id="Rectangle" fill="#303751" opacity="0.2" x="26.752" y="73.216" width="28.16" height="2.112" rx="1.056"></rect>
                            <rect id="Rectangle" stroke="#979797" opacity="0.2" x="28.66" y="46.964" width="25.048" height="3.928" rx="1.964"></rect>
                            <rect id="Rectangle" fill="#303751" opacity="0.2" x="33.088" y="36.608" width="15.488" height="2.112" rx="1.056"></rect>
                            <g id="Group-7" transform="translate(28.160000, 41.536000)" fill="#303751">
                                <rect id="Rectangle" x="0" y="0" width="3.52" height="3.52" rx="1.76"></rect>
                                <rect id="Rectangle" x="5.632" y="0" width="3.52" height="3.52" rx="1.76"></rect>
                                <rect id="Rectangle" x="11.264" y="0" width="3.52" height="3.52" rx="1.76"></rect>
                                <rect id="Rectangle" x="16.896" y="0" width="3.52" height="3.52" rx="1.76"></rect>
                                <rect id="Rectangle" x="22.528" y="0" width="3.52" height="3.52" rx="1.76"></rect>
                            </g>
                            <rect id="Rectangle" fill="#F9AD13" x="33.792" y="54.208" width="14.784" height="4.928" rx="2"></rect>
                            <path d="M19.5060262,21.31753 L19.5060262,21.31753 C18.8507264,21.31753 18.3192478,20.7860514 18.3192478,20.1307516 L18.3192478,13.980649 C18.3192478,13.3253493 18.8507264,12.7948232 19.5060262,12.7948232 C20.1613259,12.7948232 20.6928045,13.3253493 20.6928045,13.980649 L20.6928045,20.1307516 C20.6928045,20.7860514 20.1613259,21.31753 19.5060262,21.31753" id="Fill-5" fill="#D4D4DF"></path>
                            <path d="M61.8068642,21.31753 L61.8068642,21.31753 C61.1515644,21.31753 60.6200858,20.7860514 60.6200858,20.1307516 L60.6200858,13.980649 C60.6200858,13.3253493 61.1515644,12.7948232 61.8068642,12.7948232 C62.462164,12.7948232 62.9936425,13.3253493 62.9936425,13.980649 L62.9936425,20.1307516 C62.9936425,20.7860514 62.462164,21.31753 61.8068642,21.31753" id="Fill-7" fill="#D4D4DF"></path>
                            <path d="M6.79883031,76.2110769 C5.90446042,79.9666684 2.70701666,77.9007597 3.37565101,80.2752689 C3.42517948,80.449571 3.59090936,80.5667249 3.77283125,80.5733922 L5.65015078,80.64578 C5.83112019,80.6524472 6.01018466,80.6000614 6.15972254,80.498147 C7.15029195,79.819988 7.82178372,78.86466 9.96103266,78.749411 C9.94484066,77.8359917 9.98674936,76.5320595 9.68481619,76.0663014 L6.79883031,76.2110769 Z" id="Fill-9" fill="#000000"></path>
                            <path d="M11.7463435,49.8534536 C11.7463435,49.8534536 6.28678212,58.1809039 5.53242541,60.7706714 C4.77902118,63.3613914 6.35536,67.7503759 6.07057129,76.5959703 C7.77739859,77.0388691 10.0518984,76.6588333 10.0518984,76.6588333 C10.0518984,76.6588333 11.4215511,65.562551 9.81092329,62.9432568 C12.2244838,59.2600531 18.2869591,51.2202488 18.2869591,51.2202488 L11.7463435,49.8534536 Z" id="Fill-11" fill="#0079E5"></path>
                            <path d="M14.7739618,77.4211908 C13.3852597,79.3127974 9.91731426,78.1945969 10.056375,80.732931 C15.3121077,80.6491136 17.4970752,80.6595908 17.4970752,80.6595908 C17.4846931,80.0766788 17.3675392,78.6936915 17.2408606,78.1536407 L14.7739618,77.4211908 Z" id="Fill-13" fill="#000000"></path>
                            <path d="M13.1457133,48.1699618 C13.1457133,48.1699618 11.4045971,61.7560023 11.8065397,64.4229199 C12.2084823,67.09079 13.4533613,69.179558 13.497175,78.0299147 C15.2192418,78.4080456 17.8499656,78.74903 17.8499656,78.74903 C17.8499656,78.74903 18.9595938,68.0746921 16.6774743,65.1353679 C17.3242018,60.7806724 20.4063966,49.8253557 20.4063966,49.8253557 L13.1457133,48.1699618 Z" id="Fill-15" fill="#0080FD"></path>
                            <path d="M4.226112,42.1891132 L2.10305506,39.8088892 C2.05733647,39.7574558 1.991616,39.7279292 1.92303812,39.7269768 L0.175254588,39.7155447 C0.125726118,39.7145946 -0.0285741176,39.9917636 0.00476235294,40.0279575 L1.50204612,41.3595113 C1.50871341,41.3671311 1.51728565,41.3728459 1.52776282,41.3757033 L4.09467106,42.3281739 C4.14991435,42.3443659 4.26516329,42.2319744 4.226112,42.1891132" id="Fill-17" fill="#46506F"></path>
                            <path d="M4.064192,42.3481758 L2.04209694,40.1051076 C1.99542588,40.0536742 1.93065788,40.0241476 1.86112753,40.0222426 L0.0590531765,39.9898473 C0.00952470588,39.9889062 -0.0171444706,40.0479593 0.016192,40.0851057 L1.44013553,41.6547772 C1.44680282,41.662397 1.45632753,41.6681118 1.46585224,41.6709692 L4.00513882,42.4415179 C4.06038212,42.4577099 4.10324329,42.3919895 4.064192,42.3481758" id="Fill-19" fill="#303850"></path>
                            <path d="M8.05923464,44.3954161 L6.59719228,43.6782057 C6.59719228,43.6782057 5.15419934,42.2190208 4.94084593,41.8923234 C4.61986334,41.7294509 4.01218711,41.320841 3.87598381,41.3056015 C3.73978052,41.2894095 3.45975416,41.3322707 3.45975416,41.3322707 L4.13696075,42.1028194 C4.13696075,42.1028194 3.81502569,42.1656824 3.40546334,41.905658 C2.99494852,41.644681 2.2701184,40.9465201 1.91484687,41.0817709 L1.78912075,41.19321 C1.78912075,41.19321 1.56529016,40.9541399 1.35384169,41.0417672 C1.14239322,41.1312994 1.56243275,42.1856843 2.75492593,43.3029323 C2.83398099,43.6001032 3.22735134,44.1230095 3.22735134,44.1230095 L5.6380544,44.9707083 L8.05923464,44.3954161 Z" id="Fill-21" fill="#EABD72"></path>
                            <path d="M1.71282786,40.4432346 C1.79855021,40.528957 1.92141892,40.5441965 1.98809186,40.478476 C2.05381233,40.4127556 2.03762033,40.2889344 1.95189798,40.203212 C1.86712809,40.1174897 1.74330692,40.1022502 1.67758645,40.1679706 C1.61186598,40.2346436 1.62710551,40.3575123 1.71282786,40.4432346" id="Fill-23" fill="#1B2031"></path>
                            <path d="M14.8693041,33.6419279 C14.4349775,34.2038856 17.834345,34.8153717 18.289626,33.6466903 C18.7449069,32.4780088 17.9629286,29.2634206 17.9629286,29.2634206 L14.8645417,29.9215778 C14.8645417,29.9215778 15.4341192,32.909478 14.8693041,33.6419279" id="Fill-25" fill="#E5B462"></path>
                            <path d="M18.6405161,26.6388879 C18.9014931,29.1248361 17.5299354,31.3069463 15.5773707,31.5117274 C13.624806,31.7165086 11.8303514,29.8677632 11.5693745,27.3808625 C11.3083976,24.8949143 12.6799552,22.7137566 14.6325199,22.5089754 C16.5850846,22.3032418 18.3795392,24.1538921 18.6405161,26.6388879" id="Fill-27" fill="#EABD72"></path>
                            <g id="Group-3" transform="translate(14.080000, 29.920000) scale(-1, 1) translate(-14.080000, -29.920000) translate(13.376000, 29.568000)">
                                <mask id="mask-4" fill="white">
                                    <use xlink:href="#path-3"></use>
                                </mask>
                                <g id="Clip-2"></g>
                                <path d="M0.00329761894,0.086298312 C-0.0149571621,0.030457583 0.0460107557,-0.0187855257 0.101690381,0.00707905855 C0.24325392,0.0728162182 0.479193151,0.176704835 0.712589935,0.254298588 C0.94588502,0.331844531 1.19885866,0.390410365 1.35298189,0.423015996 C1.41354302,0.435828766 1.42808583,0.510123708 1.37652497,0.542824957 C1.21813042,0.643175719 0.918731669,0.775988686 0.561110846,0.657088093 C0.203439174,0.538139691 0.0593840355,0.258027677 0.00329761894,0.086298312" id="Fill-1" fill="#FFFFFF" mask="url(#mask-4)"></path>
                            </g>
                            <path d="M17.9145431,28.2182746 C16.6277553,27.1410304 16.9830268,25.4961137 16.9830268,25.4961137 C16.3591586,25.5370699 16.1848565,25.8037617 16.1848565,25.8037617 C15.6829045,25.227517 15.8057732,24.6855612 15.8057732,24.6855612 C14.4532649,24.5379283 14.0579896,25.4942088 13.0255115,26.0580713 C11.6120452,26.8314775 9.58328282,26.7305156 8.91083859,24.9332036 C8.81368659,24.6722266 9.06132894,24.4207744 9.32421082,24.5093542 C9.56804329,24.5922191 9.87283388,24.6303179 10.2128659,24.529356 C10.2128659,24.529356 9.79949365,24.2569495 9.64995576,23.7673796 C9.56804329,23.4968779 9.84806965,23.2635226 10.1042842,23.381629 C10.4890824,23.557836 11.1386673,23.6483208 12.1254268,23.1739904 C12.7826315,22.8577702 14.0675144,21.32334 15.1123746,21.2738116 C15.9667407,21.2338078 16.7915802,21.7471895 17.3316311,22.6558464 C17.3316311,22.6558464 19.3699181,22.327244 20.1566588,24.4560158 C20.9291125,26.5466888 18.0326494,29.7765165 18.0326494,29.7765165 C18.0326494,29.7765165 18.2545751,28.5497344 17.9145431,28.2182746" id="Fill-29" fill="#0E294B"></path>
                            <path d="M11.091901,50.850595 C13.5159386,51.3458797 17.874444,52.1992934 20.1794229,51.3011136 C21.0518859,50.0486148 21.2719066,42.966996 21.2719066,42.966996 C21.5252638,35.6777385 20.6508958,34.5966844 18.6792817,32.1535974 C17.8525372,32.5345856 15.7809137,32.8574731 14.8713043,32.8650929 C14.8713043,32.8650929 12.808253,35.729172 12.4063104,37.8084152 C11.9977005,39.9171851 11.9519819,43.6661094 11.9138831,45.8139305 C11.8719744,48.1989169 11.4005015,49.3485489 11.091901,50.850595" id="Fill-31" fill="#FFB900"></path>
                            <path d="M18.9665468,34.3665675 C20.3847755,37.1258748 20.0628405,40.1833054 15.9405478,46.2010146 L15.940643,46.2013003 C14.6138515,47.2337784 11.1878148,47.6223864 5.57014325,45.5355234 C6.16448489,44.7268759 6.36164631,42.9667102 6.36164631,42.9667102 L12.5091105,43.4591019 C12.6442576,42.9512157 13.3810301,40.1874949 14.3108706,36.7972725 C15.3414438,33.0378711 18.3464885,33.1578824 18.9665468,34.3665675 Z" id="Combined-Shape" fill="#FF9E00"></path>
                            <polygon id="Fill-37" fill="#FFFFFF" points="14.8897822 32.6606927 14.830729 34.3227539 19.0139799 32.5692555 18.5072655 31.2243671"></polygon>
                            <path d="M66.0153555,25.5830743 C64.7009461,24.360102 62.5940811,24.7429952 62.5940811,24.7429952 C62.5940811,24.7429952 61.1196567,23.7829048 59.2718637,25.0411185 C57.4240708,26.2993321 58.1889047,27.9813952 57.3088218,29.0110159 C56.7878204,29.6205971 54.9543145,29.3319985 54.8752595,31.7074601 C54.8524002,32.393239 55.5315117,33.0209171 56.1868115,33.2247458 C57.3364435,33.5828747 58.6108491,33.348567 58.8984952,33.9571957 C59.8881122,36.0497736 63.6913272,36.1145416 64.5028322,34.86871 C64.7542844,34.4829594 67.6697969,36.0469161 68.0498327,33.0971147 C68.2431842,31.6017359 66.338243,32.0817811 66.8659117,30.4301971 C67.4564435,28.5833566 67.311668,26.7898545 66.0153555,25.5830743 Z" id="Fill-39" fill="#0B1C32"></path>
                            <path d="M59.9967891,32.1946488 L62.6960907,33.727174 C62.6960907,33.727174 62.9361133,34.8206103 63.0551721,35.1758818 C63.301862,35.9073792 62.3570112,36.2264568 61.5578884,35.7721284 C60.7587656,35.315895 60.2406216,34.7063138 60.2406216,34.7063138 L59.9967891,32.1946488 Z" id="Fill-57" fill="#764F3D"></path>
                            <path d="M59.336346,29.7037478 C59.0972759,31.9792 60.3507272,33.9755784 62.137562,34.1641675 C63.9243968,34.3518042 65.5674086,32.6602165 65.8064787,30.3847642 C66.0455488,28.109312 64.791145,26.1129336 63.0052627,25.9252969 C61.2184279,25.7376602 59.5754161,27.429248 59.336346,29.7037478" id="Fill-41" fill="#7E5745"></path>
                            <path d="M62.6592976,32.4702983 C62.6410428,32.4144576 62.7020108,32.3652145 62.7576904,32.3910791 C62.8992539,32.4568162 63.1351932,32.5607048 63.3685899,32.6382986 C63.601885,32.7158445 63.8548587,32.7744104 64.0089819,32.807016 C64.069543,32.8198288 64.0840858,32.8941237 64.032525,32.926825 C63.8741304,33.0271757 63.5747317,33.1599887 63.2171108,33.0410881 C62.8594392,32.9221397 62.715384,32.6420277 62.6592976,32.4702983" id="Fill-1" fill="#FFFFFF"></path>
                            <path d="M59.361015,29.5037289 C61.4202564,29.9361506 64.8796296,28.9055774 65.4692088,27.9569167 C65.5254046,26.587264 63.7185679,25.2509478 62.3717745,25.4185826 C61.0259336,25.5862174 59.0781312,27.655936 59.361015,29.5037289" id="Fill-43" fill="#0B1C32"></path>
                            <path d="M65.4223473,35.6538315 C67.5415944,36.1824527 71.16384,41.1343473 71.5029195,44.8470776 C70.3409054,45.0880527 69.0122089,44.1612988 69.0122089,44.1612988 L66.1328904,40.0199567 L65.4223473,35.6538315 Z" id="Fill-45" fill="#7E5745"></path>
                            <path d="M67.4718735,78.133734 L68.6072184,73.6637896 L65.7907629,73.2751816 C65.6936109,75.3896663 65.5355008,77.471767 65.5497879,78.0346771 L67.4718735,78.133734 Z" id="Fill-47" fill="#7E5745"></path>
                            <path d="M60.751622,73.2494648 L57.8113453,73.2494648 C57.9075448,73.9542931 58.2932954,77.7698903 58.2932954,77.7698903 C58.5418903,78.3337528 60.7335251,78.2051693 60.7335251,77.8879966 C60.5677952,77.2003128 60.7382874,73.3380446 60.751622,73.2494648" id="Fill-49" fill="#7E5745"></path>
                            <path d="M65.5599793,74.9972484 L68.4592998,75.4249077 L70.4709176,63.3999665 C70.0565929,58.8366799 66.039072,49.1281472 66.039072,49.1281472 L61.5110268,50.7140107 L61.4005402,54.995366 L66.8534344,64.2276634 C66.1428913,66.0135458 65.6571313,71.7874225 65.5599793,74.9972484" id="Fill-51" fill="#D99200"></path>
                            <path d="M63.3183398,49.4497965 C63.2773835,49.1678652 63.2630965,49.0792855 63.0287887,48.9392723 L58.679808,47.7058229 L57.6444725,48.7268713 C56.6643802,52.2872064 57.2720565,57.2381485 58.0445101,61.1670897 C56.9129751,64.5674097 57.3558739,71.5775932 57.8111548,74.872189 L60.9038268,74.872189 C61.0828913,72.670077 61.0266955,68.5849306 61.0400301,66.612364 C61.4410202,65.0265005 61.8277233,63.3339603 62.1725176,61.5547452 C62.614464,59.2811979 63.1668969,57.0790859 63.3183398,55.0179396 C63.456448,53.061565 63.4974042,50.9651772 63.3183398,49.4497965" id="Fill-53" fill="#F9AD13"></path>
                            <path d="M57.8332521,35.1106376 C56.8102987,35.7811768 52.5013218,41.3883712 54.8767834,46.0049961 C54.9863176,46.0659543 56.8884013,42.8437463 56.8884013,42.8437463 L59.1333745,38.3995185 L57.8332521,35.1106376 Z" id="Fill-55" fill="#7E5745"></path>
                            <path d="M66.71104,49.838595 C66.71104,49.838595 65.5976019,51.1577668 65.4090127,51.2558712 L64.4108235,50.1671974 L64.4041562,50.1852943 L64.1679435,50.8091625 L63.8907746,51.5368501 C63.6593242,51.5368501 56.7024791,49.9786082 56.7024791,49.9786082 C56.7167661,49.3509301 57.3063454,47.3193103 58.2607209,45.1572021 C58.0292706,43.3256011 58.2511962,41.4216124 58.1788085,40.366275 C58.7407661,37.532675 58.339776,36.4449536 57.8330616,35.1105423 L59.5979896,34.5895409 L62.7754315,35.7105988 L63.0116442,34.94386 C63.0116442,34.94386 65.0042127,35.4220002 65.4223473,35.6534505 L66.1757515,38.7937461 L66.0119266,45.4677075 C66.0119266,45.4677075 66.2624264,48.154627 66.71104,49.838595" id="Fill-59" fill="#007CFF"></path>
                            <path d="M60.2121427,34.2363648 L58.9672636,34.7659384 C59.0987046,36.2603648 62.4437813,37.1537822 62.4437813,37.1537822 L62.775241,35.7107893 L60.2121427,34.2363648 Z" id="Fill-61" fill="#006CE5"></path>
                            <path d="M62.775622,35.7105988 L63.7604766,36.804035 C63.7604766,36.804035 64.6119853,35.9239522 64.3033848,35.379139 C63.9957368,34.8352783 62.8670592,34.4676247 62.8670592,34.4676247 L62.775622,35.7105988 Z" id="Fill-63" fill="#006CE5"></path>
                            <path d="M66.7868567,78.0611558 C67.0811701,77.2877496 67.7107531,77.2029798 67.7107531,77.2029798 C68.9346778,78.8345619 71.940675,77.8335153 71.8406656,80.0403896 C67.2707117,80.012768 65.3705329,80.0403896 65.3705329,80.0403896 C65.3772002,79.5336753 65.4676849,78.3297525 65.5724567,77.859232 L65.8105743,77.9011407 L66.7868567,78.0611558 Z" id="Fill-65" fill="#000000"></path>
                            <path d="M71.1929856,80.6301594 L66.0210703,80.6301594 C65.6619889,80.6301594 65.3705329,80.3387034 65.3705329,79.979622 L71.843523,79.979622 C71.843523,80.3387034 71.552067,80.6301594 71.1929856,80.6301594" id="Fill-68" fill="#000000"></path>
                            <path d="M64.4042515,50.18558 L64.1670863,50.8084958 C63.9527804,49.3740751 63.1536576,43.3735104 63.6041762,41.7162116 C64.0280256,40.1608271 63.498452,38.5187678 62.9860228,36.9329043 C62.8602967,36.5442963 62.7307607,36.1442586 62.6193216,35.7556506 L62.7755268,35.7108845 L62.9307795,35.6661184 C63.0403136,36.0490116 63.1698496,36.4471443 63.2927183,36.8328949 C63.820387,38.464477 64.3642477,40.1522549 63.9156341,41.8009815 C63.5270261,43.2315923 64.1232727,48.1587226 64.4042515,50.18558" id="Fill-71" fill="#006CE5"></path>
                            <path d="M61.2570982,80.0619155 C61.2570982,80.0619155 60.890397,78.6932152 60.858013,78.5179607 C60.8208666,78.3179418 60.7132375,77.8455164 60.6913306,77.6026364 C60.6856158,77.5426308 60.0560328,77.1578327 59.5750351,77.1578327 C58.9235452,77.1597376 58.3292036,77.536916 58.3177739,77.6083512 C58.2406238,78.0645847 58.2387189,78.6027305 58.1139452,79.0475343 C58.0215556,79.3770891 57.7691509,80.1485903 57.7691509,80.1485903 L61.2570982,80.0619155 Z" id="Fill-73" fill="#000000"></path>
                            <path d="M61.2570982,79.9558103 C61.1713758,80.2272644 60.1169909,79.9139016 59.3464422,79.9139016 C58.7006671,79.914854 57.8643979,80.1653538 57.7691509,80.0672493 C57.6072309,80.3529905 57.7405768,80.9444747 57.7405768,80.9444747 C57.7405768,80.9444747 58.4139735,80.9787637 59.2216685,80.9444747 C60.0293636,80.9092333 60.9627848,80.9616192 61.3151989,80.8568474 C61.5371245,80.4863364 61.2570982,79.9558103 61.2570982,79.9558103" id="Fill-75" fill="#000000"></path>
                            <path d="M62.6072252,41.3938003 C62.6072252,41.3938003 57.0400346,46.9743255 54.8760215,46.0056629 C54.1635735,45.0408102 55.6780017,43.1063424 57.0962304,42.4577099 C58.5087443,41.8119349 60.880396,40.7946963 60.880396,40.7946963 L62.6072252,41.3938003 Z" id="Fill-77" fill="#7E5745"></path>
                            <path d="M63.6619912,39.4981933 L65.9755422,37.7132634 C66.0250707,37.6742121 66.0898387,37.6580201 66.1517493,37.6684973 L67.7280881,37.955191 C67.7728542,37.9628107 67.8652439,38.2380747 67.82905,38.2647439 L66.2555686,39.2105472 C66.2479488,39.216262 66.2393766,39.2191194 66.2298519,39.2210244 L63.7562857,39.6448738 C63.7038999,39.6505886 63.6200824,39.5296248 63.6619912,39.4981933" id="Fill-79" fill="#FFC652"></path>
                            <path d="M63.78105,39.6683998 L65.981257,37.9891942 C66.0307855,37.9510953 66.0955535,37.9358558 66.1574641,37.9453805 L67.7861888,38.2206445 C67.8309549,38.2282643 67.845242,38.286365 67.8090481,38.3139866 L66.2612834,39.4874304 C66.2536636,39.4921928 66.2450914,39.4960026 66.2355667,39.4969551 L63.8181963,39.7626944 C63.7658104,39.7674568 63.7391413,39.7007838 63.78105,39.6683998" id="Fill-81" fill="#F9AD13"></path>
                            <path d="M60.8194379,40.8254611 L62.1195603,40.1739712 C62.1195603,40.1739712 62.9434473,39.2767439 63.2015669,39.0090997 C63.5311217,38.9129001 64.1711819,38.6366837 64.3016704,38.6462084 C64.4321589,38.6557331 64.653132,38.7328832 64.653132,38.7328832 L63.9006803,39.32151 C63.9006803,39.32151 64.2073758,39.4624757 64.6378925,39.291031 C65.0674568,39.1186338 65.8703895,38.5909651 66.1780375,38.7814592 L66.2770944,38.9071853 C66.2770944,38.9071853 66.5485485,38.6976418 66.711421,38.8424173 C67.2162304,39.2929359 63.9625909,41.2312136 63.9625909,41.2312136 L62.6072252,41.394086 L60.8194379,40.8254611 Z" id="Fill-83" fill="#7E5745"></path>
                            <path d="M66.2204224,38.350371 C66.1289852,38.4122816 66.0156412,38.4065668 65.9670652,38.3351315 C65.9184892,38.2636962 65.9537306,38.156067 66.0451678,38.093204 C66.136605,38.0303409 66.249949,38.0379607 66.298525,38.1084435 C66.347101,38.1789263 66.3118596,38.287508 66.2204224,38.350371" id="Fill-85" fill="#F9CD2D"></path>
                            <path d="M71.50311,44.8474586 C71.50311,44.8474586 68.6171241,48.1477692 66.6083637,48.6135273 C66.4883524,47.9525128 66.3788183,47.4467509 66.3788183,47.4467509 L69.1171712,43.8406972 L71.50311,44.8474586 Z" id="Fill-87" fill="#7E5745"></path>
                            <path d="M66.2431864,48.794973 C66.2527112,48.7673513 66.2669982,48.7416346 66.2841427,48.7187753 C66.2803328,48.7168704 66.274618,48.7159179 66.2698556,48.714013 C65.9850669,48.6197184 65.8088599,48.3777909 65.8774377,48.1730097 C65.8879149,48.1396732 65.9060119,48.1091942 65.9269662,48.082525 C65.7764759,47.9653711 65.7002782,47.7996412 65.7488542,47.6539132 C65.7679036,47.5958125 65.8060024,47.5472365 65.8545784,47.5091377 C65.6964683,47.402461 65.6145559,47.2233965 65.6688467,47.0595716 C65.7374246,46.8557429 65.9898293,46.754781 66.2327093,46.835741 C66.4765417,46.916701 66.6184599,47.1481513 66.5508344,47.35198 C66.53369,47.4043659 66.5041634,47.449132 66.4660646,47.4862784 C66.7041822,47.5958125 66.8422904,47.8120233 66.7813323,47.9968026 C66.7699027,48.0301391 66.7527582,48.0606182 66.7308514,48.0872873 C66.8813417,48.2044412 66.9575394,48.3701711 66.9089634,48.5158991 C66.8918189,48.5692375 66.8584824,48.614956 66.8137163,48.6521024 C66.9584919,48.7397297 67.035642,48.8987923 66.987066,49.0426153 C66.9299177,49.2150125 66.7165643,49.2997824 66.5108307,49.2312045 C66.3060495,49.1635791 66.1850857,48.9683226 66.2431864,48.794973" id="Fill-89" fill="#7E5745"></path>
                            <path d="M60.0106952,29.8423322 C60.3459648,30.3661911 60.2707196,31.0119661 59.8430603,31.2862776 C59.4144486,31.5605892 58.7962952,31.3586654 58.4610255,30.8357591 C58.1257559,30.3128527 58.2019535,29.6661252 58.6296128,29.3918136 C59.0572721,29.1184546 59.6754255,29.3194259 60.0106952,29.8423322" id="Fill-91" fill="#7E5745"></path>
                        </g>
                    </g>
                </g>
            </g>
        </g>
    </g>
</svg>