<?xml version="1.0" encoding="UTF-8"?>
<svg width="103px" height="88px" viewBox="0 0 103 88" version="1.1" xmlns="http://www.w3.org/2000/svg" xmlns:xlink="http://www.w3.org/1999/xlink">
    <title>pricing/icon_2</title>
    <g id="02_Builder" stroke="none" stroke-width="1" fill="none" fill-rule="evenodd">
        <g id="32_Billing-Info" transform="translate(-999.000000, -770.000000)">
            <g id="Plans" transform="translate(840.000000, 594.000000)">
                <g id="block_2" transform="translate(0.000000, 150.000000)">
                    <g id="pricing/icon_2" transform="translate(159.000000, 26.000000)">
                        <path d="M20.1355264,38.5090816 C20.1355264,39.1187456 19.6413184,39.6122496 19.0323584,39.6122496 C18.4226944,39.6122496 17.9284864,39.1187456 17.9284864,38.5090816 C17.9284864,37.9001216 18.4226944,37.4059136 19.0323584,37.4059136 C19.6413184,37.4059136 20.1355264,37.9001216 20.1355264,38.5090816" id="Fill-3" fill="#C7CBD3"></path>
                        <path d="M41.5734528,3.8150464 C41.5734528,4.4247104 41.0792448,4.9182144 40.4702848,4.9182144 C39.8606208,4.9182144 39.3664128,4.4247104 39.3664128,3.8150464 C39.3664128,3.2053824 39.8606208,2.7118784 40.4702848,2.7118784 C41.0792448,2.7118784 41.5734528,3.2053824 41.5734528,3.8150464" id="Fill-5" fill="#C7CBD3"></path>
                        <path d="M79.09792,8.6427264 C79.09792,8.9292544 78.8656,9.1615744 78.579072,9.1615744 C78.29184,9.1615744 78.05952,8.9292544 78.05952,8.6427264 C78.05952,8.3561984 78.29184,8.1238784 78.579072,8.1238784 C78.8656,8.1238784 79.09792,8.3561984 79.09792,8.6427264" id="Fill-7" fill="#C7CBD3"></path>
                        <path d="M1.0381184,45.1069696 C1.0381184,45.3934976 0.8057984,45.6258176 0.5192704,45.6258176 C0.2320384,45.6258176 -0.0002816,45.3934976 -0.0002816,45.1069696 C-0.0002816,44.8204416 0.2320384,44.5881216 0.5192704,44.5881216 C0.8057984,44.5881216 1.0381184,44.8204416 1.0381184,45.1069696" id="Fill-9" fill="#C7CBD3"></path>
                        <path d="M81.6131008,24.4624512 C81.6131008,25.0721152 81.1188928,25.5656192 80.5099328,25.5656192 C79.9002688,25.5656192 79.4060608,25.0721152 79.4060608,24.4624512 C79.4060608,23.8534912 79.9002688,23.3592832 80.5099328,23.3592832 C81.1188928,23.3592832 81.6131008,23.8534912 81.6131008,24.4624512" id="Fill-12" fill="#C7CBD3"></path>
                        <path d="M92.1329024,42.788768 C92.1329024,43.397728 91.6386944,43.891936 91.0297344,43.891936 C90.4200704,43.891936 89.9258624,43.397728 89.9258624,42.788768 C89.9258624,42.179104 90.4200704,41.6856 91.0297344,41.6856 C91.6386944,41.6856 92.1329024,42.179104 92.1329024,42.788768" id="Fill-14" fill="#C7CBD3"></path>
                        <line x1="66.9171008" y1="0.0004928" x2="66.9171008" y2="4.2435008" id="Stroke-16" stroke="#D3D8E2"></line>
                        <line x1="69.0387456" y1="2.1217856" x2="64.7957376" y2="2.1217856" id="Stroke-18" stroke="#D3D8E2"></line>
                        <line x1="99.0759616" y1="13.456256" x2="99.0759616" y2="19.633152" id="Stroke-20" stroke="#D3D8E2"></line>
                        <line x1="102.16455" y1="16.5448448" x2="95.9869504" y2="16.5448448" id="Stroke-22" stroke="#D3D8E2"></line>
                        <line x1="91.0294528" y1="56.032416" x2="91.0294528" y2="59.89456" id="Stroke-25" stroke="#D3D8E2"></line>
                        <line x1="92.9603136" y1="57.9635584" x2="89.0981696" y2="57.9635584" id="Stroke-27" stroke="#D3D8E2"></line>
                        <line x1="8.7972544" y1="17.7579072" x2="8.7972544" y2="24.7760832" id="Stroke-29" stroke="#D3D8E2"></line>
                        <line x1="12.304864" y1="21.257632" x2="5.287392" y2="21.257632" id="Stroke-31" stroke="#D3D8E2"></line>
                        <line x1="14.9232512" y1="61.019552" x2="14.9232512" y2="62.641568" id="Stroke-33" stroke="#EEF1F8" stroke-width="0.25"></line>
                        <line x1="15.7341184" y1="61.8304192" x2="14.1121024" y2="61.8304192" id="Stroke-35" stroke="#EEF1F8" stroke-width="0.25"></line>
                        <line x1="40.495136" y1="21.4153984" x2="40.495136" y2="25.1099904" id="Stroke-37" stroke="#D3D8E2"></line>
                        <line x1="42.34208" y1="23.2626944" x2="38.647488" y2="23.2626944" id="Stroke-39" stroke="#D3D8E2"></line>
                        <g id="girl" transform="translate(30.976000, 26.752000)">
                            <path d="M35.4410036,26.8156844 C34.2451242,22.9049103 32.5152879,21.2450407 29.3060227,21.0452672 C27.8855131,20.9568881 15.9948448,20.9568881 14.5743353,21.0452672 C11.3650701,21.2450407 9.88011744,23.2565854 8.67134944,27.2299614 L5.96197837,38.1889669 C5.78061714,39.4207503 6.15622821,40.6691047 6.98662329,41.5952438 L10.6469901,45.6772524 L12.3482873,31.2466063 L15.4903476,48.4529078 L29.5914134,48.4529078 L31.9270147,31.2466063 L34.2368387,45.5732229 L37.8051439,41.5289595 C38.6272534,40.5963761 38.9927378,39.3471011 38.803091,38.1190001 L35.4410036,26.8156844 Z" id="Fill-41" fill="#EDF1F4"></path>
                            <path d="M31.3643346,8.66676481 C31.4057622,6.15716727 29.1787936,3.21856296 25.9557192,2.35502573 C22.8486422,1.52186881 19.5611247,2.82269835 17.8653512,5.55784666 L17.5854841,6.00894819 C16.4807456,7.79033896 16.1953549,9.96207066 16.802961,11.9690122 L18.9314238,17.2358528 L18.9498361,20.9845987 L21.9427567,23.2566774 L25.0038029,20.9827574 L25.072849,16.9486208 L27.8945352,16.9403353 C29.872017,16.9127168 31.4600786,15.298878 31.4600786,13.3204756 L31.4600786,13.2891747 L31.4609992,11.6403525 L31.3643346,8.66676481 Z" id="Fill-43" fill="#FFDFAE"></path>
                            <path d="M28.4002292,13.0720935 C28.4002292,13.9522019 27.6867523,14.6656788 26.806644,14.6656788 C25.9265357,14.6656788 25.2130587,13.9522019 25.2130587,13.0720935" id="Fill-45" fill="#FFFFFF"></path>
                            <path d="M18.5998181,16.4165051 L16.3792938,12.5913482 C16.0948237,12.1015808 15.8609874,11.5851156 15.6814674,11.0483968 L15.6667375,11.0078897 C14.2213714,6.71045712 16.3912618,1.88090881 20.6960594,0.455796195 C20.9022772,0.387670656 21.1121775,0.325989426 21.3266809,0.272593733 C25.5035129,-0.769542882 29.8350083,1.22358943 31.2914218,5.44369035 C31.6624298,6.52173096 31.6615092,7.07502081 31.6615092,7.07502081 L26.417684,10.8937334 C25.2116778,11.7720005 23.5315547,11.5685445 22.5704323,10.427902 L21.4997566,9.15929404 L18.5998181,16.4165051 Z" id="Fill-47" fill="#0E294B"></path>
                            <path d="M20.4238334,12.4517829 C19.4166802,12.4517829 18.6000943,11.6351971 18.6000943,10.6280438 C18.6000943,9.61996998 19.4166802,8.80338413 20.4238334,8.80338413 C21.4319072,8.80338413 22.2484931,9.61996998 22.2484931,10.6280438 C22.2484931,11.6351971 21.4319072,12.4517829 20.4238334,12.4517829 Z" id="Fill-49" fill="#FFDFAE"></path>
                            <path d="M39.43896,46.2446454 L31.4811606,48.0410382 L13.205104,48.0410382 L5.24822526,46.2446454 C3.46683449,45.7691893 1.60995326,46.7677485 0.641465875,48.4820263 C-0.733933509,50.919119 0.188523106,54.2047336 2.58672618,55.3279859 L16.7890597,60.2062264 L31.8300739,60.2062264 L42.0995385,55.4090872 C44.4977416,54.2848211 45.4211188,51.0813215 44.0447988,48.6442288 C43.077232,46.9309648 41.2203508,45.7691893 39.43896,46.2446454 Z" id="Fill-51" fill="#2D8DFF"></path>
                            <path d="M26.752,58.5649988 L27.808,59.84 L38.016,59.84 C37.7365073,58.6139712 36.5413432,57.7926092 35.2530149,57.9429631 L34.0037268,58.0898804 C31.7314067,58.0898804 30.2327934,56.32 30.2327934,56.32 L26.752,58.5649988 Z" id="Fill-53" fill="#000000"></path>
                            <path d="M11.264,57.024 C10.9491495,57.0921255 10.6286698,57.5516259 10.2779154,57.5516259 L8.92000766,57.3868357 C7.52067228,57.2183631 6.28688246,58.4627594 5.984,59.84 L17.6,59.84 L11.264,57.024 Z" id="Fill-55" fill="#000000"></path>
                            <path d="M12.670963,53.5077307 C11.7107611,53.5077307 10.9061433,52.7822858 10.8067168,51.8276076 L9.55560052,39.7795141 C9.4405236,38.673855 10.3077433,37.7118119 11.4198467,37.7118119 L33.2669704,37.7118119 C34.3799944,37.7118119 35.2481347,38.6766169 35.1312165,39.7841172 L33.8524818,51.8312901 C33.7521347,52.7850476 32.9475168,53.5077307 31.9882356,53.5077307 L12.670963,53.5077307 Z" id="Fill-57" fill="#D3D9DD"></path>
                            <path d="M22.3435006,47.2529777 C21.4357738,47.2529777 20.6992815,46.517406 20.6992815,45.6096793 C20.6992815,44.7028731 21.4357738,43.9663808 22.3435006,43.9663808 C23.2512274,43.9663808 23.986799,44.7028731 23.986799,45.6096793 C23.986799,46.517406 23.2512274,47.2529777 22.3435006,47.2529777 Z" id="Fill-59" fill="#6E8091"></path>
                            <path d="M29.1304613,23.4553462 L29.1304613,16.6731727 C29.1304613,16.8342804 28.3240022,16.9337068 27.8664564,16.9401511 L25.0576589,16.9484367 L24.7041426,23.3329044 C24.6332552,24.602433 25.6440909,25.6703468 26.9154607,25.6703468 C28.1389586,25.6703468 29.1304613,24.6788441 29.1304613,23.4553462 Z" id="Fill-61" fill="#0E294B"></path>
                        </g>
                        <g id="Group-2" transform="translate(16.896000, 52.096000)">
                            <rect id="Rectangle" fill="#F9AD13" x="0" y="0" width="12.672" height="6.336" rx="1"></rect>
                            <rect id="Rectangle" fill="#FFCA5D" x="1.408" y="1.408" width="9.856" height="1" rx="0.5"></rect>
                            <rect id="Rectangle" fill="#FFCA5D" x="1.408" y="2.816" width="9.856" height="1" rx="0.5"></rect>
                            <rect id="Rectangle" fill="#FFCA5D" x="1.408" y="4.224" width="9.856" height="1" rx="0.5"></rect>
                        </g>
                        <g id="Group-2" transform="translate(76.032000, 38.720000)">
                            <rect id="Rectangle" fill="#F9AD13" x="0" y="0" width="7.04" height="6.336" rx="1"></rect>
                            <rect id="Rectangle" fill="#FFCA5D" x="0.704" y="1.408" width="5.632" height="1" rx="0.5"></rect>
                            <rect id="Rectangle" fill="#FFCA5D" x="0.704" y="2.816" width="5.632" height="1" rx="0.5"></rect>
                            <rect id="Rectangle" fill="#FFCA5D" x="0.704" y="4.224" width="5.632" height="1" rx="0.5"></rect>
                        </g>
                        <path d="M75.734208,87.740928 L27.052608,87.740928 C26.886464,87.740928 26.752,87.483968 26.752,87.166464 C26.752,86.84896 26.886464,86.592 27.052608,86.592 L75.734208,86.592 C75.899648,86.592 76.034112,86.84896 76.034112,87.166464 C76.034112,87.483968 75.899648,87.740928 75.734208,87.740928" id="Fill-37" fill="#919EBB"></path>
                    </g>
                </g>
            </g>
        </g>
    </g>
</svg>