<?xml version="1.0" encoding="UTF-8"?>
<svg width="101px" height="88px" viewBox="0 0 101 88" version="1.1" xmlns="http://www.w3.org/2000/svg" xmlns:xlink="http://www.w3.org/1999/xlink">
    <title>pricing/icon_1</title>
    <g id="02_Builder" stroke="none" stroke-width="1" fill="none" fill-rule="evenodd">
        <g id="32_Billing-Info" transform="translate(-1000.000000, -620.000000)">
            <g id="Plans" transform="translate(840.000000, 594.000000)">
                <g id="pricing/icon_1" transform="translate(160.000000, 26.000000)">
                    <path d="M43.2883688,60.07155 L38.6422437,63.947675 C36.5288688,65.7118 35.3071812,68.3222375 35.3071812,71.075675 L35.3071812,86.7926125 C37.1008688,86.7926125 38.5549313,85.3378625 38.5549313,83.544175 L38.5549313,81.7106125 C38.5549313,77.6681125 40.3458688,73.833925 43.4451188,71.2393 L47.7323687,67.649175 L43.2883688,60.07155 Z" id="Fill-1" fill="#2D8DFF"></path>
                    <path d="M59.9286875,60.07155 L64.5748125,63.947675 C66.6881875,65.7118 67.909875,68.3222375 67.909875,71.075675 L67.909875,86.7926125 C66.116875,86.7926125 64.6628125,85.3378625 64.6628125,83.544175 L64.6628125,81.7106125 C64.6628125,77.6681125 62.871875,73.833925 59.7719375,71.2393 L55.4846875,67.649175 L59.9286875,60.07155 Z" id="Fill-3" fill="#827DDC"></path>
                    <path d="M59.9286875,60.07155 L64.5748125,63.947675 C66.6881875,65.7118 67.909875,68.3222375 67.909875,71.075675 L67.909875,86.7926125 C66.116875,86.7926125 64.6628125,85.3378625 64.6628125,83.544175 L64.6628125,81.7106125 C64.6628125,77.6681125 62.871875,73.833925 59.7719375,71.2393 L55.4846875,67.649175 L59.9286875,60.07155 Z" id="Fill-5" fill="#0082ED"></path>
                    <path d="M57.6264563,78.6957875 L45.7024563,78.6957875 C44.8705813,78.6957875 44.2257063,77.9684125 44.3253937,77.1420375 L45.3834563,68.3970375 L57.9461438,68.3970375 L59.0042063,77.1420375 C59.1038938,77.9684125 58.4590188,78.6957875 57.6264563,78.6957875" id="Fill-7" fill="#FFA80D"></path>
                    <path d="M57.6264562,78.6957875 L54.3512062,78.6957875 L54.3512062,68.3970375 L57.9461437,68.3970375 L59.0042063,77.1420375 C59.1038937,77.9684125 58.4590187,78.6957875 57.6264562,78.6957875" id="Fill-9" fill="#F79700"></path>
                    <path d="M55.8419125,70.3897562 C57.922975,70.3897562 59.7180375,68.9205688 60.1181625,66.8786937 C61.066225,62.0400687 61.6141625,56.3283187 61.6141625,50.2102562 C61.6141625,32.7615062 53.8385375,14.5606313 51.6646625,14.5606313 C49.089975,14.5606313 41.71585,32.7615062 41.71585,50.2102562 C41.71585,56.3283187 42.2637875,62.0400687 43.21185,66.8786937 C43.611975,68.9205688 45.40635,70.3897562 47.4881,70.3897562 L55.8419125,70.3897562 Z" id="Fill-11" fill="#DDE3E8"></path>
                    <path d="M58.4375,29.047425 C56.0250625,20.5959875 52.916875,14.560425 51.66425,14.560425 C50.182,14.560425 47.1081875,20.5959875 44.76725,29.047425 L58.4375,29.047425 Z" id="Fill-13" fill="#D4DADD"></path>
                    <path d="M57.7902875,26.8882625 C55.4954125,19.5870125 52.8066,14.5607 51.6646625,14.5607 C50.3116625,14.5607 47.6345375,19.5870125 45.3974125,26.8882625 L57.7902875,26.8882625 Z" id="Fill-15" fill="#FFB825"></path>
                    <path d="M46.6426125,26.8882625 L47.97155,26.8882625 C49.20905,22.847825 49.7693625,19.996075 50.7964875,17.31895 C50.8817375,17.097575 50.5709875,16.946325 50.450675,17.1505125 C49.4228625,18.9050125 48.162675,21.92795 46.6426125,26.8882625" id="Fill-17" fill="#FFFFFF"></path>
                    <path d="M58.6933187,47.3084563 C58.6933187,51.2292688 55.5143187,54.4082687 51.5935062,54.4082687 C47.6726937,54.4082687 44.4943812,51.2292688 44.4943812,47.3084563 C44.4943812,43.3876438 47.6726937,40.2086438 51.5935062,40.2086438 C55.5143187,40.2086438 58.6933187,43.3876438 58.6933187,47.3084563" id="Fill-19" fill="#000000"></path>
                    <path d="M58.6933187,46.5608687 C58.6933187,50.4823687 55.5143187,53.6606812 51.5935062,53.6606812 C47.6726937,53.6606812 44.4943812,50.4823687 44.4943812,46.5608687 C44.4943812,42.6400563 47.6726937,39.4617437 51.5935062,39.4617437 C55.5143187,39.4617437 58.6933187,42.6400563 58.6933187,46.5608687" id="Fill-21" fill="#2D8DFF"></path>
                    <path d="M51.5933687,39.4616063 C51.5686187,39.4616063 51.5431812,39.4629812 51.5184312,39.4636688 L51.5184312,53.6584813 C51.5431812,53.6591688 51.5686187,53.6605438 51.5933687,53.6605438 C55.5141812,53.6605438 58.6931812,50.4822313 58.6931812,46.5607313 C58.6931812,42.6399188 55.5141812,39.4616063 51.5933687,39.4616063" id="Fill-23" fill="#0082ED"></path>
                    <path d="M56.4509,46.5608687 C56.4509,49.2441812 54.2763375,51.4187437 51.5937125,51.4187437 C48.9104,51.4187437 46.7358375,49.2441812 46.7358375,46.5608687 C46.7358375,43.8782437 48.9104,41.7036813 51.5937125,41.7036813 C54.2763375,41.7036813 56.4509,43.8782437 56.4509,46.5608687" id="Fill-25" fill="#D2F0FF"></path>
                    <path d="M54.7099437,82.225275 L48.6118187,82.225275 C46.9480687,82.225275 45.5991937,80.8764 45.5991937,79.21265 L45.5991937,78.69565 L57.7225687,78.69565 L57.7225687,79.21265 C57.7225687,80.8764 56.3736937,82.225275 54.7099437,82.225275" id="Fill-27" fill="#F79700"></path>
                    <path d="M55.1053937,82.225275 L55.1053937,82.225275 L55.1053937,78.69565 L57.7227063,78.69565 L57.7227063,79.60865 C57.7227063,81.053775 56.5512062,82.225275 55.1053937,82.225275" id="Fill-29" fill="#DB7D00"></path>
                    <path d="M51.7391187,86.7031 L51.6648687,86.792475 C50.9237437,85.967475 50.4988687,84.9080375 50.4638062,83.800475 L49.8113687,63.25385 C49.7632437,61.7241625 50.4507437,60.2639125 51.6614312,59.32685 L51.6648687,59.3241 C52.8769312,60.2625375 53.5651187,61.7269125 53.5135562,63.2586625 L52.8260562,83.8506625 C52.7909937,84.8956625 52.4087437,85.8994125 51.7391187,86.7031" id="Fill-31" fill="#0082ED"></path>
                    <path d="M51.7391187,86.7031 L51.6648687,86.792475 L51.6614312,59.32685 L51.6648687,59.3241 C52.8769312,60.2625375 53.5651187,61.7269125 53.5135562,63.2586625 L52.8260562,83.8506625 C52.7909937,84.8956625 52.4087437,85.8994125 51.7391187,86.7031" id="Fill-33" fill="#0081D8"></path>
                    <path d="M54.2843125,42.51775 C54.2884375,42.6133125 54.291875,42.7095625 54.291875,42.8058125 C54.291875,46.278375 51.4765625,49.0936875 48.004,49.0936875 C47.812875,49.0936875 47.6245,49.083375 47.4381875,49.066875 C48.288625,50.474875 49.8293125,51.4188125 51.5934375,51.4188125 C54.2760625,51.4188125 56.450625,49.24425 56.450625,46.5609375 C56.450625,44.8738125 55.589875,43.3888125 54.2843125,42.51775" id="Fill-35" fill="#AFE6FF"></path>
                    <path d="M75.288675,87.9146125 L27.74805,87.9146125 C27.5858,87.9146125 27.4544875,87.663675 27.4544875,87.3536125 C27.4544875,87.04355 27.5858,86.7926125 27.74805,86.7926125 L75.288675,86.7926125 C75.4502375,86.7926125 75.58155,87.04355 75.58155,87.3536125 C75.58155,87.663675 75.4502375,87.9146125 75.288675,87.9146125" id="Fill-37" fill="#919EBB"></path>
                    <path d="M19.6636,39.7711187 C19.6636,40.3664938 19.180975,40.8484312 18.5862875,40.8484312 C17.990225,40.8484312 17.5082875,40.3664938 17.5082875,39.7711187 C17.5082875,39.1764313 17.990225,38.6938063 18.5862875,38.6938063 C19.180975,38.6938063 19.6636,39.1764313 19.6636,39.7711187" id="Fill-39" fill="#C7CBD3"></path>
                    <path d="M33.7237313,1.07779375 C33.7237313,1.67316875 33.2417937,2.15510625 32.6471063,2.15510625 C32.0510437,2.15510625 31.5691063,1.67316875 31.5691063,1.07779375 C31.5691063,0.48241875 32.0510437,0.00048125 32.6471063,0.00048125 C33.2417937,0.00048125 33.7237313,0.48241875 33.7237313,1.07779375" id="Fill-41" fill="#C7CBD3"></path>
                    <path d="M77.2437187,10.6047562 C77.2437187,10.8845687 77.0168437,11.1114437 76.7370312,11.1114437 C76.4572187,11.1114437 76.2296562,10.8845687 76.2296562,10.6047562 C76.2296562,10.3249437 76.4572187,10.0980687 76.7370312,10.0980687 C77.0168437,10.0980687 77.2437187,10.3249437 77.2437187,10.6047562" id="Fill-43" fill="#C7CBD3"></path>
                    <path d="M1.0137875,46.2144375 C1.0137875,46.49425 0.7869125,46.721125 0.5071,46.721125 C0.2266,46.721125 -0.000275,46.49425 -0.000275,46.2144375 C-0.000275,45.934625 0.2266,45.70775 0.5071,45.70775 C0.7869125,45.70775 1.0137875,45.934625 1.0137875,46.2144375" id="Fill-45" fill="#C7CBD3"></path>
                    <path d="M79.7002938,26.0537062 C79.7002938,26.6490813 79.2176688,27.1310187 78.6229813,27.1310187 C78.0276062,27.1310187 77.5449812,26.6490813 77.5449812,26.0537062 C77.5449812,25.4590188 78.0276062,24.9763937 78.6229813,24.9763937 C79.2176688,24.9763937 79.7002938,25.4590188 79.7002938,26.0537062" id="Fill-48" fill="#C7CBD3"></path>
                    <path d="M89.9731937,43.9505 C89.9731937,44.5451875 89.4912562,45.0278125 88.8958812,45.0278125 C88.3005062,45.0278125 87.8178812,44.5451875 87.8178812,43.9505 C87.8178812,43.355125 88.3005062,42.8731875 88.8958812,42.8731875 C89.4912562,42.8731875 89.9731937,43.355125 89.9731937,43.9505" id="Fill-50" fill="#C7CBD3"></path>
                    <line x1="65.3487313" y1="2.165075" x2="65.3487313" y2="6.3086375" id="Stroke-52" stroke="#D3D8E2"></line>
                    <line x1="67.42065" y1="4.23665" x2="63.2770875" y2="4.23665" id="Stroke-54" stroke="#D3D8E2"></line>
                    <line x1="96.753525" y1="15.3054687" x2="96.753525" y2="21.3375937" id="Stroke-56" stroke="#D3D8E2"></line>
                    <line x1="99.7700687" y1="18.3216688" x2="93.7379437" y2="18.3216688" id="Stroke-58" stroke="#D3D8E2"></line>
                    <line x1="88.8956063" y1="56.88375" x2="88.8956063" y2="60.655375" id="Stroke-61" stroke="#D3D8E2"></line>
                    <line x1="90.7815563" y1="58.7697" x2="87.0106187" y2="58.7697" id="Stroke-63" stroke="#D3D8E2"></line>
                    <line x1="8.59106875" y1="19.5063688" x2="8.59106875" y2="26.3600562" id="Stroke-65" stroke="#D3D8E2"></line>
                    <line x1="12.0164687" y1="22.924" x2="5.16278125" y2="22.924" id="Stroke-67" stroke="#D3D8E2"></line>
                    <line x1="14.5738312" y1="61.754" x2="14.5738312" y2="63.338" id="Stroke-69" stroke="#EEF1F8" stroke-width="0.25"></line>
                    <line x1="15.36535" y1="62.5459313" x2="13.78135" y2="62.5459313" id="Stroke-71" stroke="#EEF1F8" stroke-width="0.25"></line>
                    <line x1="32.6710312" y1="18.2656375" x2="32.6710312" y2="21.8736375" id="Stroke-73" stroke="#D3D8E2"></line>
                    <line x1="34.4750313" y1="20.0696375" x2="30.8670313" y2="20.0696375" id="Stroke-75" stroke="#D3D8E2"></line>
                </g>
            </g>
        </g>
    </g>
</svg>