<?xml version="1.0" encoding="UTF-8"?> <svg xmlns="http://www.w3.org/2000/svg" xmlns:xlink="http://www.w3.org/1999/xlink" width="350px" height="183px" viewBox="0 0 350 183" version="1.1"><title>Tenable-grey2</title><g id="Page-1" stroke="none" stroke-width="1" fill="none" fill-rule="evenodd"><g id="Tenable-grey2" fill-rule="nonzero"><rect id="Rectangle" fill="#F4F4F4" x="0" y="0" width="350" height="183"></rect><g id="tenable-logo-copy" transform="translate(72.000000, 68.000000)" fill="#041E42"><path d="M204.985312,12.2579187 C205.287473,12.4273736 205.524301,12.6580773 205.695798,12.9500297 C205.867294,13.2399405 205.955084,13.5584341 205.955084,13.9034688 C205.955084,14.2485035 205.869336,14.5649554 205.695798,14.8548662 C205.524301,15.1427354 205.285431,15.3713974 204.985312,15.5388107 C204.683152,15.706224 204.350367,15.7899306 203.984916,15.7899306 C203.629673,15.7899306 203.300971,15.706224 203.002894,15.5388107 C202.702775,15.3713974 202.467988,15.1427354 202.29445,14.8548662 C202.120912,14.566997 202.035164,14.2505451 202.035164,13.9034688 C202.035164,13.5584341 202.120912,13.2399405 202.29445,12.9500297 C202.465946,12.6601189 202.702775,12.4294153 203.002894,12.2579187 C203.300971,12.0884638 203.629673,12.0027156 203.984916,12.0027156 C204.350367,12.0027156 204.683152,12.0864222 204.985312,12.2579187 Z M204.783191,15.2305253 C205.017978,15.0998612 205.201724,14.9181566 205.332389,14.6874529 C205.465094,14.4547076 205.530426,14.1954212 205.530426,13.9034688 C205.530426,13.613558 205.465094,13.3501883 205.332389,13.1154014 C205.201724,12.8806145 205.017978,12.6968682 204.783191,12.5641625 C204.548404,12.4314569 204.280951,12.3640833 203.982874,12.3640833 C203.692963,12.3640833 203.433677,12.4314569 203.200932,12.5641625 C202.968186,12.6968682 202.786482,12.8806145 202.655818,13.1154014 C202.523112,13.3501883 202.45778,13.6115164 202.45778,13.9034688 C202.45778,14.1954212 202.523112,14.4547076 202.655818,14.6874529 C202.786482,14.9181566 202.968186,15.0998612 203.200932,15.2305253 C203.433677,15.3611893 203.692963,15.4265213 203.982874,15.4265213 C204.282993,15.4265213 204.548404,15.3611893 204.783191,15.2305253 Z M204.687235,13.8320119 C204.59332,13.9279683 204.472864,13.9973835 204.323826,14.0422993 L204.895481,14.8936571 L204.376908,14.8936571 L203.905292,14.1096729 L203.719504,14.1096729 L203.719504,14.8936571 L203.278513,14.8936571 L203.278513,12.8520317 L203.880793,12.8520317 C204.509613,12.8520317 204.824024,13.0582359 204.824024,13.4726858 C204.826065,13.6176412 204.78115,13.7360555 204.687235,13.8320119 Z M203.721546,13.7850545 L203.954291,13.7850545 C204.233994,13.7850545 204.372825,13.6809316 204.372825,13.4747275 C204.372825,13.3706046 204.338117,13.297106 204.268702,13.2501487 C204.199286,13.2031913 204.089039,13.1807334 203.94,13.1807334 L203.723588,13.1807334 L203.723588,13.7850545 L203.721546,13.7850545 Z" id="Shape"></path><path d="M66.2691179,18.4134192 C66.1425372,18.5359167 65.9894153,18.5951239 65.8097522,18.5951239 L60.301447,18.5951239 C60.1217839,18.5951239 60.0319524,18.6808722 60.0319524,18.8544103 L60.0319524,31.3716155 C60.0319524,32.6884638 60.3300297,33.6398612 60.9221011,34.2278494 C61.5162141,34.8178791 62.4614866,35.1098315 63.7579187,35.1098315 L65.3789693,35.1098315 C65.5586323,35.1098315 65.7117542,35.1710803 65.838335,35.2915362 C65.9649158,35.4140337 66.0282061,35.5610307 66.0282061,35.7325273 L66.0282061,39.6279485 C66.0282061,40.0097324 65.8117939,40.2343112 65.3810109,40.3037265 L62.5717344,40.3547671 C59.7277502,40.3547671 57.6024182,39.8872349 56.1998216,38.9521705 C54.797225,38.017106 54.0744896,36.2511001 54.039782,33.6541526 L54.039782,18.8523687 C54.039782,18.6788305 53.9499504,18.5930823 53.7702874,18.5930823 L50.6915164,18.5930823 C50.5118533,18.5930823 50.3587314,18.5338751 50.2321506,18.4113776 C50.1055699,18.2909217 50.0422795,18.1439247 50.0422795,17.9703865 L50.0422795,14.3342517 C50.0422795,14.1607136 50.1055699,14.0137166 50.2321506,13.8932607 C50.3587314,13.7728048 50.5098117,13.711556 50.6915164,13.711556 L53.7702874,13.711556 C53.9499504,13.711556 54.039782,13.6258077 54.039782,13.4522696 L54.039782,7.37639247 C54.039782,7.20285431 54.1030723,7.05585728 54.2296531,6.93540139 C54.3562339,6.81494549 54.5073142,6.75369673 54.6890188,6.75369673 L59.3867988,6.75369673 C59.5664618,6.75369673 59.7195837,6.81494549 59.8461645,6.93540139 C59.9727453,7.05789891 60.0360357,7.20489594 60.0360357,7.37639247 L60.0360357,13.4522696 C60.0360357,13.6258077 60.1258672,13.711556 60.3055302,13.711556 L65.8138355,13.711556 C65.9934985,13.711556 66.1466204,13.7728048 66.2732012,13.8932607 C66.399782,14.0157582 66.4630723,14.1627552 66.4630723,14.3342517 L66.4630723,17.9703865 C66.4569475,18.1459663 66.3936571,18.2929633 66.2691179,18.4134192 Z" id="Path"></path><path d="M91.0401586,26.9065808 L90.9870763,28.5174232 C90.9870763,28.9339148 90.770664,29.1401189 90.3398811,29.1401189 L73.435223,29.1401189 C73.25556,29.1401189 73.1657284,29.2279088 73.1657284,29.3994054 C73.2739346,30.5427156 73.435223,31.3205748 73.6516353,31.7370664 C74.5152428,34.229891 76.6222002,35.4936571 79.9704658,35.5283647 C82.4183746,35.5283647 84.362002,34.5585927 85.8033895,32.6190486 C85.9463033,32.4108028 86.1280079,32.3066799 86.3444202,32.3066799 C86.487334,32.3066799 86.6139148,32.3577205 86.7221209,32.4618434 L90.0703865,35.1098315 C90.395005,35.3527849 90.4480872,35.6284044 90.2316749,35.940773 C89.1149058,37.4638256 87.6306442,38.6418434 85.7768484,39.4727849 C83.9230525,40.3037265 81.8610109,40.720218 79.5927651,40.720218 C76.7834886,40.720218 74.3988702,40.1138553 72.4368682,38.9031715 C70.4748662,37.6924876 69.0436868,35.9938553 68.14333,33.8133994 C67.3144301,31.9432706 66.9020218,29.3463231 66.9020218,26.022557 C66.9020218,24.0156392 67.1184341,22.3864222 67.549217,21.1410307 C68.2699108,18.7176214 69.6275917,16.8046184 71.6263429,15.4020218 C73.6250942,13.9994252 76.0280872,13.2991477 78.8353221,13.2991477 C85.9279286,13.2991477 89.9233895,16.8658672 90.8237463,23.9993062 C90.9687017,24.8629138 91.0401586,25.8326858 91.0401586,26.9065808 Z M75.5135976,19.4526065 C74.6316155,20.0936769 74.0089197,20.9838256 73.6495937,22.1271358 C73.4331814,22.7171655 73.288226,23.4766501 73.2167691,24.4117146 C73.1432706,24.5852527 73.2167691,24.671001 73.4331814,24.671001 L84.3967096,24.671001 C84.5763726,24.671001 84.6662042,24.5852527 84.6662042,24.4117146 C84.5927056,23.5460654 84.4865411,22.888662 84.3415857,22.4374628 C84.0169673,21.1900297 83.3779386,20.2222993 82.4244995,19.5281467 C81.4710605,18.8360357 80.2726264,18.4889594 78.8332805,18.4889594 C77.5021407,18.491001 76.3955798,18.8115362 75.5135976,19.4526065 Z" id="Shape"></path><path d="M113.636868,15.7899306 C115.382458,17.4518137 116.256274,19.7200595 116.256274,22.594668 L116.256274,39.6299901 C116.256274,39.8035282 116.192983,39.9505253 116.066402,40.0709812 C115.939822,40.1934787 115.7867,40.2526858 115.607037,40.2526858 L110.637721,40.2526858 C110.458057,40.2526858 110.304936,40.1934787 110.178355,40.0709812 C110.051774,39.9505253 109.988484,39.8035282 109.988484,39.6299901 L109.988484,23.8400595 C109.988484,22.2475917 109.520951,20.9572844 108.583845,19.9711794 C107.646739,18.9850743 106.405431,18.491001 104.857879,18.491001 C103.310327,18.491001 102.058811,18.9769078 101.105372,19.9446383 C100.151933,20.9144103 99.6741923,22.196551 99.6741923,23.7890188 L99.6741923,39.6299901 C99.6741923,39.8035282 99.6109019,39.9505253 99.4843211,40.0709812 C99.3577403,40.1934787 99.2046184,40.2526858 99.0249554,40.2526858 L94.0556392,40.2526858 C93.8759762,40.2526858 93.7228543,40.1934787 93.5962735,40.0709812 C93.4696928,39.9505253 93.4064024,39.8035282 93.4064024,39.6299901 L93.4064024,14.3362934 C93.4064024,14.1627552 93.4696928,14.0157582 93.5962735,13.8953023 C93.7228543,13.7748464 93.8739346,13.7135976 94.0556392,13.7135976 L99.0249554,13.7135976 C99.2046184,13.7135976 99.3577403,13.7748464 99.4843211,13.8953023 C99.6109019,14.0177998 99.6741923,14.1647968 99.6741923,14.3362934 L99.6741923,15.9981764 C99.6741923,16.1022993 99.7088999,16.1717146 99.7823984,16.2064222 C99.8538553,16.2411298 99.9089792,16.2064222 99.9436868,16.1022993 C101.419782,14.2321705 103.651278,13.297106 106.640218,13.297106 C109.557701,13.297106 111.889237,14.1280476 113.636868,15.7899306 Z" id="Path"></path><path d="M136.792983,14.4404163 C138.520198,15.2019425 139.85338,16.2492963 140.788444,17.5824777 C141.723508,18.9156591 142.193082,20.4305451 142.193082,22.1271358 L142.193082,39.6299901 C142.193082,39.8035282 142.129792,39.9505253 142.003211,40.0709812 C141.87663,40.1934787 141.723508,40.2526858 141.543845,40.2526858 L136.574529,40.2526858 C136.394866,40.2526858 136.241744,40.1934787 136.115164,40.0709812 C135.988583,39.9505253 135.925292,39.8035282 135.925292,39.6299901 L135.925292,37.968107 C135.925292,37.8639841 135.888543,37.804777 135.817086,37.7864024 C135.743588,37.7700694 135.672131,37.7945689 135.600674,37.8639841 C133.83671,39.734113 131.280595,40.6691774 127.932329,40.6691774 C125.231259,40.6691774 123.007929,40.011774 121.262339,38.6949257 C119.514708,37.3801189 118.642934,35.4222002 118.642934,32.8252527 C118.642934,30.1241824 119.622914,28.0213082 121.586957,26.5145887 C123.548959,25.0078692 126.31332,24.2545094 129.875956,24.2545094 L135.653756,24.2545094 C135.833419,24.2545094 135.923251,24.1687611 135.923251,23.995223 L135.923251,22.7477899 C135.923251,21.3982755 135.508801,20.3509217 134.681943,19.6057284 C133.853043,18.8605352 132.611734,18.4889594 130.955976,18.4889594 C129.588087,18.4889594 128.479485,18.7217047 127.634252,19.1892369 C126.786977,19.6567691 126.256155,20.3060059 126.041784,21.1369475 C125.933578,21.553439 125.680416,21.7269772 125.286383,21.6555203 L120.047572,21.0328246 C119.867909,20.9981169 119.714787,20.9389098 119.588206,20.8511199 C119.461625,20.7653717 119.41671,20.6530823 119.453459,20.5142517 C119.741328,18.4032111 120.919346,16.6698712 122.991596,15.3203568 C125.061804,13.9708424 127.662834,13.2950644 130.794688,13.2950644 C133.067017,13.297106 135.065768,13.67889 136.792983,14.4404163 Z M133.834668,34.540218 C135.094351,33.6398612 135.725213,32.496551 135.725213,31.112329 L135.725213,28.6705451 C135.725213,28.4970069 135.635382,28.4112587 135.455719,28.4112587 L130.919227,28.4112587 C129.010307,28.4112587 127.507671,28.758335 126.409277,29.450446 C125.310882,30.142557 124.761685,31.1307037 124.761685,32.4108028 C124.761685,33.5194054 125.184301,34.376888 126.031576,34.9812091 C126.876809,35.5875719 127.967037,35.8897393 129.298176,35.8897393 C131.062141,35.891774 132.574985,35.4426165 133.834668,34.540218 Z" id="Shape"></path><path d="M168.81996,26.9065808 C168.81996,29.3646977 168.476967,31.5288206 167.793023,33.3989495 C167.000872,35.6835282 165.722815,37.4679088 163.95885,38.7480079 C162.194886,40.0301487 160.034846,40.6691774 157.478731,40.6691774 C154.957324,40.6691774 152.889158,39.7524876 151.268107,37.9170664 C151.194609,37.8129435 151.123152,37.7782359 151.051695,37.8129435 C150.978196,37.8476511 150.943489,37.9170664 150.943489,38.0211893 L150.943489,39.6320317 C150.943489,39.8055699 150.880198,39.9525669 150.753617,40.0730228 C150.627037,40.1955203 150.473915,40.2547275 150.294252,40.2547275 L145.324936,40.2547275 C145.145273,40.2547275 144.992151,40.1955203 144.86557,40.0730228 C144.738989,39.9525669 144.675699,39.8055699 144.675699,39.6320317 L144.675699,4.52015857 C144.675699,4.34662042 144.738989,4.19962339 144.86557,4.07916749 C144.992151,3.9587116 145.143231,3.89746283 145.324936,3.89746283 L150.294252,3.89746283 C150.473915,3.89746283 150.627037,3.9587116 150.753617,4.07916749 C150.880198,4.20166501 150.943489,4.34866204 150.943489,4.52015857 L150.943489,15.7899306 C150.943489,15.8940535 150.978196,15.9634688 151.051695,15.9981764 C151.123152,16.032884 151.194609,16.016551 151.268107,15.9471358 C152.815659,14.1811298 154.867493,13.2991477 157.425649,13.2991477 C160.08997,13.2991477 162.294926,13.940218 164.040515,15.2203171 C165.786105,16.5024579 167.074371,18.2847968 167.901229,20.5693756 C168.513717,22.5089197 168.81996,24.6199604 168.81996,26.9065808 Z M162.392924,27.008662 C162.392924,24.3075917 161.851893,22.196551 160.771873,20.6714569 C159.800059,19.2178196 158.358672,18.491001 156.451794,18.491001 C154.68783,18.491001 153.336274,19.2525273 152.401209,20.7755798 C151.500852,22.196551 151.051695,24.2545094 151.051695,26.9555798 C151.051695,29.6219425 151.466145,31.6309019 152.293003,32.9804163 C153.228067,34.6422993 154.632706,35.4732408 156.504876,35.4732408 C157.511397,35.4732408 158.411754,35.2568285 159.205946,34.824004 C159.998097,34.3911794 160.626918,33.7766501 161.096492,32.9804163 C161.960099,31.5288206 162.392924,29.5382359 162.392924,27.008662 Z" id="Shape"></path><path d="M171.4067,40.1118137 C171.280119,39.9913578 171.216829,39.8443608 171.216829,39.6708226 L171.216829,4.56099108 C171.216829,4.38745292 171.280119,4.2404559 171.4067,4.12 C171.53328,3.9995441 171.684361,3.93829534 171.866065,3.93829534 L176.835382,3.93829534 C177.015045,3.93829534 177.168167,3.9995441 177.294747,4.12 C177.421328,4.24249752 177.484618,4.38949455 177.484618,4.56099108 L177.484618,39.6708226 C177.484618,39.8443608 177.421328,39.9913578 177.294747,40.1118137 C177.168167,40.2343112 177.015045,40.2935183 176.835382,40.2935183 L171.864024,40.2935183 C171.684361,40.2935183 171.531239,40.2343112 171.4067,40.1118137 Z" id="Path"></path><path d="M204.044123,26.8657483 L203.991041,28.4765907 C203.991041,28.8930823 203.774628,29.0992864 203.343845,29.0992864 L186.439187,29.0992864 C186.259524,29.0992864 186.169693,29.1870763 186.169693,29.3585728 C186.277899,30.5018831 186.439187,31.2797423 186.6556,31.6962339 C187.519207,34.1890585 189.626165,35.4528246 192.97443,35.4875322 C195.422339,35.4875322 197.365966,34.5177602 198.807354,32.5782161 C198.950268,32.3699703 199.131972,32.2658474 199.346343,32.2658474 C199.489257,32.2658474 199.615837,32.316888 199.724044,32.4210109 L203.072309,35.068999 C203.396928,35.3119524 203.45001,35.5875719 203.233598,35.8999405 C202.116829,37.4229931 200.632567,38.6010109 198.778771,39.4319524 C196.924975,40.262894 194.862934,40.6793855 192.594688,40.6793855 C189.787453,40.6793855 187.400793,40.0730228 185.438791,38.8623389 C183.476789,37.6516551 182.04561,35.9530228 181.145253,33.7725669 C180.316353,31.9024381 179.903944,29.3054906 179.903944,25.9817245 C179.903944,23.9748067 180.120357,22.3455897 180.55114,21.1001982 C181.271833,18.6767889 182.629514,16.7637859 184.628266,15.3611893 C186.627017,13.9585927 189.03001,13.2583152 191.837245,13.2583152 C198.929851,13.2583152 202.925312,16.8250347 203.825669,23.9584737 C203.970624,24.8241229 204.044123,25.7938949 204.044123,26.8657483 Z M188.517562,19.411774 C187.63558,20.0528444 187.012884,20.9429931 186.653558,22.0863033 C186.437146,22.676333 186.294232,23.4358176 186.220733,24.3708821 C186.147235,24.5444202 186.220733,24.6301685 186.437146,24.6301685 L197.400674,24.6301685 C197.580337,24.6301685 197.670168,24.5444202 197.670168,24.3708821 C197.59667,23.5052329 197.490505,22.8478295 197.34555,22.3966303 C197.020932,21.1491972 196.381903,20.1814668 195.428464,19.4873142 C194.475025,18.7952032 193.276591,18.4481269 191.837245,18.4481269 C190.506105,18.4522101 189.399544,18.7727453 188.517562,19.411774 Z" id="Shape"></path><path d="M46.7940535,25.232448 L40.5487215,6.68632309 C40.0975223,5.34701685 38.9542121,4.34457879 37.5659068,4.07508424 L18.0724678,0.271536174 C16.7127453,0.00612487611 15.2958573,0.483865213 14.3750842,1.51692765 L1.15351833,16.3350446 C0.212329039,17.3905649 -0.0918731417,18.8789098 0.359326065,20.2182161 L6.60465808,38.7643409 C7.05585728,40.1056888 8.19916749,41.1060852 9.58747275,41.3755798 L29.0809118,45.1791278 C29.3299901,45.2281269 29.5790684,45.2505847 29.8281467,45.2505847 C30.9408325,45.2505847 32.0249356,44.7769277 32.7782953,43.9337364 L45.9998612,29.1156194 C46.9410505,28.0621407 47.2452527,26.5737958 46.7940535,25.232448 Z M39.2482061,7.12527255 L43.3559564,19.3219425 L34.6259663,5.54913776 C34.4381368,5.25106046 34.2074331,4.98973241 33.9481467,4.76719524 L37.3066204,5.42255699 C38.2090188,5.59813677 38.9542121,6.25145689 39.2482061,7.12527255 Z M32.813003,39.2910803 L25.2038652,39.6769475 L37.5128246,32.5516749 C37.5311992,32.5414668 37.5495738,32.529217 37.5679485,32.5169673 L34.60555,38.1457284 C34.2543905,38.8153816 33.5663627,39.254331 32.813003,39.2910803 Z M13.6890981,39.1706244 L9.38943508,32.3883449 C9.4711001,32.447552 9.55480674,32.5026759 9.64259663,32.5537166 L22.049554,39.7361546 C22.1067195,39.7688206 22.1659267,39.8014866 22.2251338,39.8300694 L15.6123092,40.1648959 C14.8385332,40.2016452 14.1015064,39.8219029 13.6890981,39.1706244 Z M14.3403766,6.16162537 L21.9495144,5.77575818 L9.64259663,12.9010307 C9.624222,12.9112389 9.60584737,12.9234886 9.58747275,12.9357384 L12.5498712,7.30697721 C12.9010307,6.63732408 13.5870168,6.20041625 14.3403766,6.16162537 Z M33.4663231,6.28412289 L37.7659861,13.0664024 C37.6843211,13.0071952 37.6006145,12.9520714 37.5128246,12.9010307 L25.1058672,5.72063429 C25.0487017,5.68796829 24.9894945,5.65530228 24.9302874,5.62671952 L31.543112,5.29189296 C32.3128048,5.24697721 33.0518731,5.63080278 33.4663231,6.28412289 Z M37.6618632,29.9138949 C37.6618632,30.5100496 37.341328,31.0674133 36.8247968,31.3675322 L24.4178394,38.5479286 C23.8992666,38.8480476 23.254113,38.8480476 22.7355401,38.5479286 L10.3306244,31.3654906 C9.81409316,31.0653717 9.49355798,30.5100496 9.49355798,29.9118533 L9.49355798,15.5388107 C9.49355798,14.9426561 9.81409316,14.3852924 10.3306244,14.0851734 L22.7375818,6.90477701 C22.9968682,6.75369673 23.286779,6.68019822 23.5787314,6.68019822 C23.8686422,6.68019822 24.1605946,6.75573835 24.4198811,6.90477701 L36.8247968,14.0872151 C37.341328,14.3852924 37.6618632,14.9426561 37.6618632,15.5408523 L37.6618632,29.9138949 Z M8.17262636,30.4671754 L4.56915758,24.7812488 C4.15879088,24.1340535 4.12612488,23.3092369 4.48340932,22.6314172 L8.1195441,15.7205154 L8.1195441,29.9118533 C8.1195441,30.1017245 8.13791873,30.2854708 8.17262636,30.4671754 Z M38.9827948,14.9855302 L42.5862636,20.6714569 C42.9966303,21.3186521 43.0292963,22.1434688 42.6720119,22.8212884 L39.0338355,29.7321903 L39.0338355,15.5408523 C39.0338355,15.3530228 39.0154609,15.1672349 38.9827948,14.9855302 Z M15.4020218,2.43157582 C15.8940535,1.88033697 16.6004559,1.57205154 17.3252329,1.57205154 C17.4865213,1.57205154 17.6498513,1.58838454 17.8131814,1.61900892 L29.9833102,3.99341923 L14.273003,4.78965312 C13.8381368,4.812111 13.4196036,4.91623389 13.0316947,5.08773043 L15.4020218,2.43157582 Z M2.17841427,17.2496928 L10.9226957,7.45193261 L3.26864222,21.9944301 C3.03793855,22.431338 2.90931615,22.9070367 2.87460852,23.3868186 L1.66188305,19.7833499 C1.36584737,18.9074926 1.56592666,17.9377205 2.17841427,17.2496928 Z M7.90517344,38.3274331 L3.79742319,26.1307631 L12.5274133,39.9035679 C12.7152428,40.1996036 12.9459465,40.4629732 13.2052329,40.6855104 L9.84880079,40.0301487 C8.94436075,39.8545689 8.20120912,39.2012488 7.90517344,38.3274331 Z M31.7533994,43.0231715 C31.1531615,43.6969078 30.2283053,44.0092765 29.3422398,43.8357384 L17.172111,41.461328 L32.8824182,40.6650942 C33.3172844,40.6426363 33.7358176,40.5385134 34.1237265,40.3670168 L31.7533994,43.0231715 Z M44.9749653,28.2030129 L36.2327255,38.0028147 L43.886779,23.4603171 C44.1174827,23.0234093 44.2461051,22.5477106 44.2808127,22.0679286 L45.4935382,25.6713974 C45.7875322,26.5452131 45.5894945,27.5149851 44.9749653,28.2030129 Z" id="Shape"></path></g></g></g></svg> 