<?xml version="1.0" encoding="UTF-8"?>
<svg width="350px" height="183px" viewBox="0 0 350 183" version="1.1" xmlns="http://www.w3.org/2000/svg" xmlns:xlink="http://www.w3.org/1999/xlink">
    <title>Zenefits-grey</title>
    <g id="Zenefits-grey" stroke="none" stroke-width="1" fill="none" fill-rule="evenodd">
        <rect fill="#F4F4F4" x="0" y="0" width="350" height="183"></rect>
        <g id="Zenefits-Lockup1-Red-RGB" transform="translate(76.000000, 66.000000)" fill="#FF5745" fill-rule="nonzero">
            <path d="M37.878,21.456 C33.028,21.456 29.148,23.868 27.234,28.244 C26.34,30.29 25.978,32.766 25.962,35.622 L25.962,35.964 C25.962,46.872 31.51,50.588 38.686,50.588 C42.638399,50.6261523 46.4202373,48.9803253 49.086,46.062 C49.1239008,46.0207399 49.1437432,45.9660457 49.141114,45.9100819 C49.1384849,45.8541181 49.1136021,45.801525 49.072,45.764 L45.672,42.694 C45.5908509,42.6165394 45.4631491,42.6165394 45.382,42.694 C43.406,44.63 41.628,45.482 38.8,45.482 C34.108,45.482 31.67,42.572 31.67,37.654 L31.67,37.654 L49.536,37.654 C49.6481842,37.6541273 49.740658,37.566057 49.746,37.454 L49.7940061,33.19 C49.8,26.26 45.414,21.456 37.878,21.456 Z M44.314,32.906 L31.77,32.906 L31.77,32.44 C31.824,31.12 31.934,30.482 32.486,29.504 C33.366,27.888 35.402,26.78 38.042,26.78 C40.682,26.78 42.662,27.886 43.544,29.504 C44.094,30.482 44.26,31.122 44.314,32.44 L44.314,32.906 Z" id="Shape"></path>
            <path d="M93.8,21.456 C88.95,21.456 85.07,23.868 83.156,28.244 C82.262,30.29 81.9,32.766 81.884,35.622 L81.884,35.964 C81.884,46.872 87.432,50.588 94.608,50.588 C98.560399,50.6261523 102.342237,48.9803253 105.008,46.062 C105.045901,46.0207399 105.065743,45.9660457 105.063114,45.9100819 C105.060485,45.8541181 105.035602,45.801525 104.994,45.764 L101.594,42.694 C101.512851,42.6165394 101.385149,42.6165394 101.304,42.694 C99.328,44.63 97.55,45.482 94.722,45.482 C90.03,45.482 87.592,42.572 87.592,37.654 L87.592,37.654 L105.458,37.654 C105.570184,37.6541273 105.662658,37.566057 105.668,37.454 L105.716003,33.19 C105.72,26.26 101.34,21.456 93.8,21.456 Z M100.236,32.906 L87.698,32.906 L87.698,32.44 C87.754,31.12 87.864,30.482 88.414,29.504 C89.294,27.888 91.33,26.78 93.97,26.78 C96.61,26.78 98.59,27.886 99.472,29.504 C100.022,30.482 100.188,31.122 100.242,32.44 L100.236,32.906 Z" id="Shape"></path>
            <path d="M0.864,22 L0.864,26.75 C0.864,26.8659798 0.958020203,26.96 1.074,26.96 L14.154,26.96 L0.2,49.93 C0.160049546,49.9949663 0.158462001,50.0764854 0.195852751,50.1429578 C0.2332435,50.2094303 0.303734087,50.2504054 0.38,50.250003 L23.346,50.250003 C23.4619798,50.250003 23.556,50.1559798 23.556,50.04 L23.556,45.29 C23.556,45.1740202 23.4619798,45.08 23.346,45.08 L9.688,45.08 L23.582,22.112 C23.6219505,22.0470337 23.623538,21.9655146 23.5861472,21.8990422 C23.5487565,21.8325697 23.4782659,21.7915946 23.402,21.7919904 L1.076,21.7919904 C1.02030379,21.791467 0.966677292,21.8130824 0.926919027,21.8520905 C0.887160762,21.8910987 0.864527914,21.9443037 0.864,22 Z" id="Path"></path>
            <path d="M150.674,14.456 L145.616,14.456 C145.50002,14.456 145.406,14.5500202 145.406,14.666 L145.406,21.8 L141.658,21.8 C141.602305,21.8 141.54889,21.8221249 141.509508,21.8615076 C141.470125,21.9008902 141.448,21.9543045 141.448,22.01 L141.448,26.764 C141.448,26.8799798 141.54202,26.974 141.658,26.974 L145.4,26.974 L145.4,41.862 C145.4,48.042 149.894,50.462 154.814,50.462 L154.814,50.462 C155.32,50.462 155.63,50.462 155.912,50.448 C156.024057,50.442658 156.112127,50.3501842 156.112,50.238 L156.112,45.378 C156.109422,45.3219164 156.084494,45.2692005 156.042782,45.2316222 C156.00107,45.1940439 155.946048,45.1747326 155.89,45.178 C155.61018,45.1921949 155.32982,45.1921949 155.05,45.178 C152.278,45.05 150.88,43.606 150.88,40.318 L150.88,26.966 L156.45,26.966 C156.505695,26.966 156.55911,26.9438751 156.598492,26.9044924 C156.637875,26.8651098 156.66,26.8116955 156.66,26.756 L156.66,22 C156.66,21.8840202 156.56598,21.79 156.45,21.79 L150.884,21.79 L150.884,14.666 C150.884,14.5500202 150.78998,14.456 150.674,14.456 Z" id="Path"></path>
            <path d="M177.976,35.91 C176.102,34.6 173.344,33.874 169.898,33.282 C165.334,32.498 164.772,31.626 164.818,29.824 C164.81368,28.8018064 165.38532,27.8642853 166.296,27.4 C167.724,26.648 169.222,26.6 170.63,26.722 C172.258,26.862 174.31,27.474 175.768,29.062 C175.80416,29.1046328 175.856513,29.1301859 175.912369,29.1324657 C175.968225,29.1347455 176.022486,29.1135441 176.062,29.074 L179.498,25.97 C179.539498,25.9360434 179.565624,25.8868455 179.570512,25.8334483 C179.575401,25.7800511 179.558643,25.7269272 179.524,25.686 C178.876008,24.853976 178.094786,24.1349278 177.212,23.558 C176.159572,22.8796574 175.014316,22.3575553 173.812,22.008 C172.479248,21.649835 171.106015,21.4643174 169.726,21.456 C167.897326,21.4264182 166.080739,21.7573864 164.38,22.43 C163.192642,22.927131 162.128426,23.6780207 161.262,24.63 C160.41592,25.5987878 159.835074,26.7701259 159.576,28.03 C159.263692,29.500426 159.321419,31.0253931 159.744,32.468 C160.051307,33.4512775 160.574765,34.35332 161.276,35.108 C163.302,37.318 166.476,37.946 169.598,38.508 C171.726,38.892 175.506,39.054 175.432,41.98 C175.36,44.824 171.91,45.696 169.596,45.696 C166.912,45.696 164.596,44.746 162.726,42.834 C162.647317,42.752407 162.518081,42.7479811 162.434,42.824 L159.072,45.862 C158.986756,45.9386579 158.978744,46.0695155 159.054,46.156 C161.516,48.93 165.686,50.586 169.95,50.586 C175.41,50.586 180.574,47.936 180.864,42.286 C181.018,39.37 180.054,37.362 177.976,35.91 Z" id="Path"></path>
            <circle id="Oval" cx="134.308" cy="12.534" r="3.872"></circle>
            <path d="M118.416,21.8 L118.416,17.858 C118.58,14.932 120.572,13.802 122.83,13.756 C124.017845,13.7413976 125.205293,13.8082209 126.384,13.956 C126.443244,13.9674757 126.504503,13.9515881 126.550702,13.9127653 C126.596901,13.8739424 126.623101,13.8163354 126.622,13.756 L126.622,9.036 C126.618914,8.93714899 126.547275,8.85384789 126.45,8.836 C125.286666,8.62385058 124.10652,8.51741651 122.924,8.51799761 L122.414,8.51799761 C116.862,8.51799761 112.922,11.63 112.922,17.366 L112.922,21.8 L108.69,21.8 C108.577816,21.7998727 108.485342,21.887943 108.48,22 C108.48,22.836 108.48,25.92 108.48,26.756 C108.48,26.8116955 108.502125,26.8651098 108.541508,26.9044924 C108.58089,26.9438751 108.634305,26.966 108.69,26.966 L112.924,26.966 L112.924,50.054 C112.924,50.1699798 113.01802,50.264 113.134,50.264 L118.2,50.264 C118.31598,50.264 118.41,50.1699798 118.41,50.054 L118.41,26.966 L131.574,26.966 L131.574,50.054 C131.574,50.1699798 131.66802,50.264 131.784,50.264 L136.842,50.264 C136.95798,50.264 137.052,50.1699798 137.052,50.054 C137.052,47.6 137.052,24.454 137.052,22.002 C137.052,21.8860202 136.95798,21.792 136.842,21.792 L118.416,21.8 Z" id="Path"></path>
            <path d="M74.088,24.018 C72.288,22.352 69.91,21.456 66.806,21.456 C64.64,21.456 62.78,21.778 60.954,22.988 C60.5666052,23.247705 60.1964924,23.5323044 59.846,23.84 C59.76,23.914 59.676,23.99 59.592,24.07 L59.592,22 C59.592,21.8840202 59.4979798,21.79 59.382,21.79 L54.322,21.79 C54.2663045,21.79 54.2128902,21.8121249 54.1735076,21.8515076 C54.1341249,21.8908902 54.112,21.9443045 54.112,22 L54.112,50.04 C54.112,50.1559798 54.2060202,50.25 54.322,50.25 L59.382,50.25 C59.4979798,50.25 59.592,50.1559798 59.592,50.04 L59.592,31.44 C59.592,29.96 60.7,28.64 61.892,27.896 C63.344,26.99 65.822,26.878 67.492,27.156 C70.162,27.598 72.014,29.756 72.014,32.536 L72.014,50.04 C72.014,50.1559798 72.1080202,50.25 72.224,50.25 L77.282,50.25 C77.3979798,50.25 77.492,50.1559798 77.492,50.04 L77.492,32.546 C77.49,29.428 76.656,26.386 74.088,24.018 Z" id="Path"></path>
            <path d="M196.22,4.186 L196.22,6.866 L179.586,15.556 L179.586,12.896 L186.212,9.434 L179.586,7.77 L179.586,5.338 L189.354,7.8 L193.102,5.842 L179.586,2.442 L179.586,0 L196.22,4.186 Z M179.586,21.16 L196.22,25.34 L196.22,22.91 L182.704,19.51 L186.452,17.552 L196.22,20.006 L196.22,17.578 L189.6,15.914 L196.226,12.452 L196.226,9.8 L179.592,18.49 L179.586,21.16 Z" id="Shape"></path>
        </g>
    </g>
</svg>