<?xml version="1.0" encoding="UTF-8"?>
<svg width="350px" height="183px" viewBox="0 0 350 183" version="1.1" xmlns="http://www.w3.org/2000/svg" xmlns:xlink="http://www.w3.org/1999/xlink">
    <title>okta Logo</title>
    <g id="okta-Logo" stroke="none" stroke-width="1" fill="none" fill-rule="evenodd">
        <rect fill="#F4F4F4" x="0" y="0" width="350" height="183"></rect>
        <g id="okta-logo" transform="translate(95.000000, 65.000000)" fill="#007DC1" fill-rule="nonzero">
            <g id="Group">
                <path d="M20.12,13.52 C9,13.52 0,22.52 0,33.64 C0,44.76 9,53.76 20.12,53.76 C31.24,53.76 40.24,44.76 40.24,33.64 C40.24,22.52 31.24,13.52 20.12,13.52 Z M20.12,43.72 C14.56,43.72 10.04,39.2 10.04,33.64 C10.04,28.08 14.56,23.56 20.12,23.56 C25.68,23.56 30.2,28.08 30.2,33.64 C30.2,39.2 25.68,43.72 20.12,43.72 Z" id="Shape"></path>
                <path d="M55.48,40.4 C55.48,38.8 57.4,38.04 58.52,39.16 C63.56,44.28 71.88,53.08 71.92,53.12 C72.04,53.24 72.16,53.44 72.64,53.6 C72.84,53.68 73.16,53.68 73.52,53.68 L82.6,53.68 C84.24,53.68 84.72,51.8 83.96,50.84 L68.92,35.44 L68.12,34.64 C66.4,32.6 66.6,31.8 68.56,29.72 L80.48,16.4 C81.24,15.44 80.76,13.6 79.08,13.6 L70.84,13.6 C70.52,13.6 70.28,13.6 70.04,13.68 C69.56,13.84 69.36,14 69.24,14.16 C69.2,14.2 62.6,21.32 58.52,25.68 C57.4,26.88 55.4,26.08 55.4,24.44 L55.4,1.6 C55.4,0.44 54.44,0 53.68,0 L46.96,0 C45.8,0 45.24,0.76 45.24,1.44 L45.24,52.08 C45.24,53.24 46.2,53.56 47,53.56 L53.72,53.56 C54.76,53.56 55.44,52.8 55.44,52.04 L55.44,51.52 L55.44,40.4 L55.48,40.4 Z" id="Path"></path>
                <path d="M110.36,51.84 L109.64,45.12 C109.56,44.2 108.68,43.56 107.76,43.72 C107.24,43.8 106.72,43.84 106.2,43.84 C100.84,43.84 96.48,39.64 96.16,34.32 C96.16,34.16 96.16,33.96 96.16,33.76 L96.16,25.52 C96.16,24.44 96.96,23.56 98.04,23.56 L107.04,23.56 C107.68,23.56 108.64,23 108.64,21.84 L108.64,15.48 C108.64,14.24 107.84,13.6 107.12,13.6 L98.04,13.6 C97,13.6 96.16,12.84 96.12,11.8 L96.12,1.6 C96.12,0.96 95.64,0 94.4,0 L87.72,0 C86.88,0 86.08,0.52 86.08,1.56 C86.08,1.56 86.08,34.16 86.08,34.32 C86.36,45.2 95.28,53.88 106.2,53.88 C107.12,53.88 108,53.8 108.88,53.68 C109.84,53.56 110.48,52.76 110.36,51.84 Z" id="Path"></path>
            </g>
            <path d="M158.84,43.4 C153.16,43.4 152.28,41.36 152.28,33.72 C152.28,33.68 152.28,33.68 152.28,33.64 L152.28,15.28 C152.28,14.64 151.8,13.56 150.52,13.56 L143.8,13.56 C142.96,13.56 142.04,14.24 142.04,15.28 L142.04,16.12 C139.12,14.44 135.72,13.48 132.12,13.48 C121,13.48 112,22.48 112,33.6 C112,44.72 121,53.72 132.12,53.72 C137.12,53.72 141.68,51.88 145.2,48.88 C147.08,51.76 150.12,53.68 154.88,53.72 C155.68,53.72 160,53.88 160,51.84 L160,44.68 C160,44.08 159.52,43.4 158.84,43.4 Z M132.16,43.72 C126.6,43.72 122.08,39.2 122.08,33.64 C122.08,28.08 126.6,23.56 132.16,23.56 C137.72,23.56 142.24,28.08 142.24,33.64 C142.2,39.2 137.68,43.72 132.16,43.72 Z" id="Shape"></path>
        </g>
    </g>
</svg>